<?xml version="1.0" encoding="UTF-8"?>
<svg width="48px" height="48px" viewBox="0 0 48 48" version="1.1" xmlns="http://www.w3.org/2000/svg" xmlns:xlink="http://www.w3.org/1999/xlink">
    <!-- Generator: Sketch 61.2 (89653) - https://sketch.com -->
    <title>illustration/accessibility</title>
    <desc>Created with Sketch.</desc>
    <g id="illustration/accessibility" stroke="none" stroke-width="1" fill="none" fill-rule="evenodd">
        <circle id="Oval" fill-opacity="0.3" fill="#A849FF" cx="24" cy="24" r="24"></circle>
        <path d="M23.9172439,7.99007713 C25.9150823,7.99007713 27.5262423,9.5949042 27.5262423,11.5848898 C27.5262423,13.5748753 25.9150823,15.1797024 23.9172439,15.1797024 C21.9194055,15.1797024 20.3082455,13.5748753 20.3082455,11.5848898 C20.3082455,9.65909728 21.9194055,7.99007713 23.9172439,7.99007713 Z M21.2550676,26.2769686 C21.5128532,25.2498793 21.5327271,22.9470654 21.5971735,21.6632038 C21.5971735,21.2138522 21.3393879,20.8286937 20.9527095,20.7003075 L13.0258024,18.3251635 C11.99466,18.0041981 11.4146424,16.9129157 11.7368744,15.9500194 C12.0591064,14.9871232 13.1546952,14.5377716 14.1213912,14.7945439 C14.1213912,14.7945439 21.3716111,17.1054949 23.9494671,17.1054949 C26.5273231,17.1054949 33.9708823,14.7303508 33.9708823,14.7303508 C34.9375783,14.4735785 36.033167,15.0513162 36.2909526,16.0142125 C36.5487382,16.9771087 35.9687206,18.0683911 35.0020247,18.3251635 L27.0751175,20.7003075 C26.6884391,20.8286937 26.3662071,21.2138522 26.4306535,21.6632038 C26.4950999,22.9470654 26.5014433,25.2498793 26.7592289,26.2769686 C27.3633482,29.0449941 30.6235044,36.3256139 31.0293213,37.2263285 C31.1795496,37.6054217 31.2546637,37.9025267 31.2546637,38.1176435 C31.2546637,39.15176 30.4163466,39.9900771 29.38223,39.9900771 C28.5363057,39.9900771 27.9601368,39.3965012 27.5892142,38.6588943 C27.3419324,38.1671563 26.1286834,35.6874702 23.9494671,31.219836 L20.3082455,38.987199 C20.3082455,38.987199 20.2877525,39.0210601 20.2467666,39.0887823 C19.9183388,39.6291393 19.3240908,39.9900771 18.6455414,39.9900771 C17.6114248,39.9900771 16.7731077,39.15176 16.7731077,38.1176435 C16.7731077,37.7953908 16.8545148,37.4921517 16.997886,37.2273695 C17.4001716,36.3312397 20.650715,29.0460635 21.2550676,26.2769686 Z" id="Shape" fill="#A470D5" fill-rule="nonzero"></path>
    </g>
</svg>