<?xml version="1.0" encoding="UTF-8"?>
<svg width="48px" height="48px" viewBox="0 0 48 48" version="1.1" xmlns="http://www.w3.org/2000/svg" xmlns:xlink="http://www.w3.org/1999/xlink">
    <!-- Generator: Sketch 61.2 (89653) - https://sketch.com -->
    <title>illustration/assign</title>
    <desc>Created with Sketch.</desc>
    <g id="illustration/assign" stroke="none" stroke-width="1" fill="none" fill-rule="evenodd">
        <circle id="Mask" fill="#37D5D3" cx="12.125" cy="11" r="11"></circle>
        <circle id="Mask" fill="#A470D5" cx="12.125" cy="37" r="11"></circle>
        <path d="M12.225,12.871875 C15.8874706,12.871875 18.992533,15.2584227 20.069894,18.5612248 C18.066796,20.6517845 15.2478702,21.953125 12.125,21.953125 C9.07901533,21.953125 6.32219295,20.715074 4.33029213,18.7147313 C5.36210229,15.3323856 8.50620963,12.871875 12.225,12.871875 Z M13.6,4.621875 C14.7390873,4.621875 15.6625,5.5452877 15.6625,6.684375 L15.6625,9.434375 C15.6625,10.5734623 14.7390873,11.496875 13.6,11.496875 L10.85,11.496875 C9.7109127,11.496875 8.7875,10.5734623 8.7875,9.434375 L8.7875,6.684375 C8.7875,5.5452877 9.7109127,4.621875 10.85,4.621875 L13.6,4.621875 Z" id="Shape" fill="#FFFFFF" opacity="0.5"></path>
        <path d="M12.125,38.671875 C15.871916,38.671875 19.0354233,41.1697445 20.0411641,44.5911257 C18.040006,46.6641194 15.2330347,47.953125 12.125,47.953125 C9.01696531,47.953125 6.20999402,46.6641194 4.20951688,44.5915389 C5.21457672,41.1697445 8.37808402,38.671875 12.125,38.671875 Z M12.125,30.421875 C14.0234788,30.421875 15.5625,31.9608962 15.5625,33.859375 C15.5625,35.7578538 14.0234788,37.296875 12.125,37.296875 C10.2265212,37.296875 8.6875,35.7578538 8.6875,33.859375 C8.6875,31.9608962 10.2265212,30.421875 12.125,30.421875 Z" id="Shape" fill="#FFFFFF" opacity="0.5"></path>
        <path d="M38.362046,37.0000194 L43.7665259,42.4045148 C44.0854943,42.7234834 44.0854817,43.2406178 43.7665349,43.559524 C43.447574,43.8785258 42.9304429,43.8785385 42.6116015,43.5595335 L37.2070286,38.1550055 L31.802475,43.559524 C31.483537,43.878503 30.9663647,43.8784904 30.6474572,43.5595419 C30.3284895,43.2406148 30.3284769,42.7234975 30.6474484,42.4046075 L36.052041,37.0000198 L30.6474483,31.5954735 C30.3284707,31.2764958 30.3284707,30.7593923 30.6474393,30.4404644 C30.9663865,30.1214761 31.4835278,30.1214761 31.8024654,30.4404548 L37.2070282,35.8449711 L42.611561,30.4404644 C42.9305097,30.1214746 43.447627,30.1214746 43.766508,30.4404375 C44.0855339,30.7593819 44.0855718,31.2765302 43.7665878,31.5954735 L38.362046,37.0000194 Z" id="Mask" fill="#FA7240" fill-rule="nonzero"></path>
        <path d="M43.5994379,5.11482476 L35.0992718,14.0931612 L30.8146064,9.36338929 C30.5158337,9.03357898 30.0314945,9.03366342 29.7328366,9.36338929 C29.4340639,9.69311515 29.4340639,10.2277692 29.7328366,10.5574951 L34.543605,15.8680236 C34.7072187,16.0502805 34.9032643,16.1326487 35.0992718,16.1324376 C35.2952792,16.1326487 35.4913249,16.0502805 35.6408643,15.8852065 C35.6456067,15.8799714 44.6812077,6.30888835 44.6812077,6.30888835 C44.9799422,5.97916249 44.9799422,5.44463506 44.6812077,5.11482476 C44.3824733,4.78514111 43.8981341,4.78514111 43.5994379,5.11482476 Z" id="Mask" fill="#A0DB77"></path>
    </g>
</svg>