<svg width="48" height="48" viewBox="0 0 48 48" xmlns="http://www.w3.org/2000/svg">
  <g fill="none" fill-rule="evenodd">
    <rect fill="#69BD45" opacity=".7" x="2" y="5" width="16" height="16" rx="4"/>
    <rect fill="#1EA7FD" opacity=".7" x="2" y="27" width="16" height="16" rx="4"/>
    <rect fill="#37D5D3" opacity=".7" x="32" y="16" width="16" height="16" rx="4"/>
    <path d="M18 13h1c2.8 0 4 1.5 5.8 5.4l.2.5c1.4 3.1 2.2 4.1 3.9 4.1H32v3h-3.1c-1.7 0-2.5 1-3.9 4.1l-.2.5C23 34.5 21.8 36 19 36h-1v-3h1c1.1 0 1.8-.8 3-3.6l.3-.5c.8-2 1.7-3.4 2.6-4.4-1-1-1.8-2.4-2.6-4.4l-.3-.5c-1.2-2.8-1.9-3.6-3-3.6h-1v-3z" fill="#66BF3C" fill-rule="nonzero" opacity=".2"/>
  </g>
</svg>
