<svg width="48" height="48" viewBox="0 0 48 48" fill="none" xmlns="http://www.w3.org/2000/svg">
<path fill-rule="evenodd" clip-rule="evenodd" d="M43.4759 8.02848C44.1395 9.20892 44.5181 10.5674 44.5181 12.0134V12.0135H44.5185C44.5185 12.3722 44.4951 12.7255 44.45 13.0721H32.5474C32.5474 15.0077 34.2469 16.5767 36.3436 16.5767C37.7744 16.5767 39.02 15.8455 39.667 14.7658H44.0394C42.8936 17.9517 39.8149 20.2331 36.1966 20.2331C34.8749 20.2331 33.6254 19.9283 32.5156 19.3867C31.4849 19.9134 24.0982 23.4428 26.465 15.0853C26.4808 15.0296 26.8456 14.0923 27.5951 12.7507C27.7381 12.4948 27.8968 12.2228 28.068 11.9406L28.0747 11.9295C28.1384 11.8247 28.2037 11.7189 28.2713 11.611L28.2824 11.5934C28.3499 11.486 28.4189 11.3777 28.4903 11.2678C28.4908 11.2668 28.4915 11.2657 28.4923 11.2647C28.7636 10.8472 29.064 10.4126 29.3928 9.96949L29.4281 9.92177C29.4524 9.88879 29.4767 9.85584 29.5017 9.82266C29.54 9.77196 29.5792 9.72108 29.6185 9.67015L29.6185 9.67007L29.6602 9.61592L29.6872 9.58094C29.7252 9.53151 29.7633 9.48211 29.8022 9.43253C29.8528 9.36819 29.9045 9.30385 29.9563 9.23943C30.0097 9.17296 30.0632 9.1064 30.1179 9.03976C30.1685 8.97815 30.2199 8.91654 30.2716 8.85484C30.3301 8.78513 30.3891 8.71542 30.4489 8.64571C30.5001 8.58597 30.552 8.52632 30.6042 8.46667C30.6674 8.39474 30.7312 8.32299 30.7958 8.25124C30.8477 8.19346 30.8997 8.13585 30.9526 8.07824C31.0207 8.0041 31.09 7.93022 31.1599 7.85642L31.1855 7.82922L31.1856 7.82912L31.1858 7.82893C31.2292 7.78303 31.2725 7.73709 31.3167 7.69127C31.3915 7.61389 31.4678 7.53702 31.5444 7.46007L31.5862 7.41788L31.5863 7.41779C31.6227 7.381 31.6591 7.34424 31.6962 7.3077C31.7825 7.22274 31.8709 7.13854 31.9594 7.05443L32.0063 7.00942C32.0343 6.98238 32.0624 6.95535 32.0912 6.92857C32.2254 6.80321 32.3619 6.67879 32.5014 6.55574C31.6278 6.92865 30.1692 7.86051 28.0851 10.17C28.9323 6.51798 32.2423 3.79373 36.1965 3.79373C36.3549 3.79373 36.5121 3.7985 36.6684 3.80719C37.7279 3.31881 38.8765 2.93354 40.1182 2.69356C40.4444 2.6305 46.3049 1.70418 43.4759 8.02848ZM43.2679 7.67942C44.2549 5.15279 43.6802 4.40253 42.9636 3.92479C41.8812 3.20308 39.974 3.9801 39.2039 4.34748C40.8968 4.9959 42.3211 6.17558 43.2679 7.67942ZM27.7342 19.3697C27.1505 18.7785 27.0474 17.3385 28.3353 14.7144C28.9853 16.5604 30.2823 18.1071 31.9589 19.0887C31.1251 19.5419 28.9116 20.5625 27.7342 19.3697ZM36.2892 7.43664C34.2527 7.43664 32.5951 8.94287 32.5286 10.8241H40.0499C39.9833 8.94287 38.3257 7.43664 36.2892 7.43664Z" fill="#1EBBEE"/>
<circle cx="12.0002" cy="35.9999" r="8.66667" fill="url(#paint0_linear_195_4175)"/>
<ellipse cx="12.0011" cy="36.0011" rx="7.94444" ry="7.94445" fill="url(#paint1_radial_195_4175)"/>
<path fill-rule="evenodd" clip-rule="evenodd" d="M12.0805 28.5339C12.0345 28.5339 11.9971 28.5712 11.9971 28.6173V29.8852C11.9971 29.9313 12.0345 29.9686 12.0805 29.9686C12.1265 29.9686 12.1638 29.9313 12.1638 29.8852V28.6173C12.1638 28.5712 12.1265 28.5339 12.0805 28.5339ZM12.0805 43.6265C12.1265 43.6265 12.1638 43.5892 12.1638 43.5432V42.2752C12.1638 42.2292 12.1265 42.1919 12.0805 42.1919C12.0345 42.1919 11.9971 42.2292 11.9971 42.2752V43.5432C11.9971 43.5892 12.0345 43.6265 12.0805 43.6265ZM12.7301 28.6449C12.7347 28.5991 12.7756 28.5657 12.8214 28.5703C12.8672 28.5749 12.9006 28.6157 12.896 28.6615L12.8416 29.2023C12.837 29.2481 12.7962 29.2815 12.7504 29.2769C12.7046 29.2723 12.6712 29.2315 12.6758 29.1857L12.7301 28.6449ZM11.3406 43.5902C11.3864 43.5948 11.4273 43.5614 11.4319 43.5156L11.4862 42.9748C11.4908 42.929 11.4574 42.8881 11.4117 42.8835C11.3659 42.8789 11.325 42.9123 11.3204 42.9581L11.2661 43.4989C11.2615 43.5447 11.2949 43.5856 11.3406 43.5902ZM19.5434 35.9969C19.5895 35.9969 19.6268 36.0342 19.6268 36.0802C19.6268 36.1263 19.5895 36.1636 19.5434 36.1636H18.2755C18.2294 36.1636 18.1921 36.1263 18.1921 36.0802C18.1921 36.0342 18.2294 35.9969 18.2755 35.9969H19.5434ZM4.53418 36.0802C4.53418 36.1263 4.57149 36.1636 4.61751 36.1636H5.88549C5.93152 36.1636 5.96883 36.1263 5.96883 36.0802C5.96883 36.0342 5.93152 35.9969 5.88549 35.9969H4.61751C4.57149 35.9969 4.53418 36.0342 4.53418 36.0802ZM19.5158 36.7299C19.5616 36.7345 19.595 36.7754 19.5904 36.8211C19.5858 36.8669 19.545 36.9003 19.4992 36.8957L18.9584 36.8414C18.9126 36.8368 18.8792 36.7959 18.8838 36.7501C18.8884 36.7043 18.9292 36.671 18.975 36.6756L19.5158 36.7299ZM4.57054 35.3404C4.56593 35.3862 4.59933 35.427 4.64512 35.4317L5.18591 35.486C5.23171 35.4906 5.27256 35.4572 5.27716 35.4114C5.28176 35.3656 5.24837 35.3248 5.20258 35.3202L4.66178 35.2658C4.61599 35.2612 4.57514 35.2946 4.57054 35.3404ZM17.2987 30.7442C17.3312 30.7117 17.384 30.7117 17.4165 30.7442C17.4491 30.7767 17.4491 30.8295 17.4165 30.862L16.5199 31.7587C16.4874 31.7912 16.4346 31.7912 16.4021 31.7587C16.3695 31.7261 16.3695 31.6733 16.4021 31.6408L17.2987 30.7442ZM6.74444 41.4163C6.77698 41.4488 6.82975 41.4488 6.86229 41.4163L7.7589 40.5197C7.79144 40.4871 7.79144 40.4344 7.7589 40.4018C7.72635 40.3693 7.67359 40.3693 7.64104 40.4018L6.74444 41.2984C6.71189 41.331 6.71189 41.3837 6.74444 41.4163ZM17.7966 31.2814C17.8321 31.2522 17.8846 31.2573 17.9138 31.2929C17.943 31.3285 17.9379 31.381 17.9023 31.4102L17.4822 31.7549C17.4466 31.7841 17.3941 31.779 17.3649 31.7434C17.3357 31.7078 17.3409 31.6553 17.3765 31.6261L17.7966 31.2814ZM6.24712 40.8676C6.27631 40.9031 6.32882 40.9083 6.3644 40.8791L6.78446 40.5344C6.82004 40.5052 6.82521 40.4526 6.79601 40.4171C6.76682 40.3815 6.71431 40.3763 6.67873 40.4055L6.25867 40.7503C6.22309 40.7795 6.21792 40.832 6.24712 40.8676ZM17.4165 41.2984C17.4491 41.331 17.4491 41.3837 17.4165 41.4163C17.384 41.4488 17.3312 41.4488 17.2987 41.4163L16.4021 40.5197C16.3695 40.4871 16.3695 40.4344 16.4021 40.4018C16.4346 40.3693 16.4874 40.3693 16.5199 40.4018L17.4165 41.2984ZM6.74444 30.7442C6.71189 30.7767 6.71189 30.8295 6.74444 30.862L7.64104 31.7587C7.67359 31.7912 7.72635 31.7912 7.7589 31.7587C7.79144 31.7261 7.79144 31.6733 7.7589 31.6408L6.86229 30.7442C6.82975 30.7117 6.77698 30.7117 6.74444 30.7442ZM16.8793 41.7963C16.9085 41.8319 16.9034 41.8844 16.8678 41.9136C16.8322 41.9428 16.7797 41.9376 16.7505 41.902L16.4058 41.482C16.3766 41.4464 16.3817 41.3939 16.4173 41.3647C16.4529 41.3355 16.5054 41.3407 16.5346 41.3762L16.8793 41.7963ZM7.29316 30.2469C7.25758 30.2761 7.25241 30.3286 7.28161 30.3642L7.62635 30.7842C7.65555 30.8198 7.70806 30.825 7.74364 30.7958C7.77921 30.7666 7.78438 30.7141 7.75519 30.6785L7.41044 30.2584C7.38124 30.2228 7.32873 30.2177 7.29316 30.2469ZM14.8594 29.1535C14.8771 29.1109 14.9258 29.0908 14.9683 29.1084C15.0108 29.126 15.031 29.1747 15.0134 29.2173L14.5282 30.3887C14.5106 30.4312 14.4618 30.4514 14.4193 30.4338C14.3768 30.4162 14.3566 30.3674 14.3742 30.3249L14.8594 29.1535ZM9.19263 43.0521C9.23515 43.0697 9.28389 43.0495 9.30151 43.007L9.78674 41.8355C9.80436 41.793 9.78416 41.7443 9.74164 41.7267C9.69912 41.7091 9.65038 41.7292 9.63276 41.7718L9.14753 42.9432C9.12991 42.9858 9.15011 43.0345 9.19263 43.0521ZM15.525 29.4592C15.5467 29.4186 15.5972 29.4033 15.6378 29.425C15.6784 29.4467 15.6937 29.4972 15.672 29.5378L15.4158 30.017C15.3941 30.0576 15.3436 30.0729 15.303 30.0512C15.2624 30.0295 15.2471 29.979 15.2688 29.9385L15.525 29.4592ZM8.52318 42.7355C8.56377 42.7572 8.61427 42.7419 8.63596 42.7013L8.89213 42.222C8.91382 42.1814 8.89851 42.1309 8.85792 42.1092C8.81733 42.0875 8.76684 42.1029 8.74514 42.1434L8.48897 42.6227C8.46728 42.6633 8.4826 42.7138 8.52318 42.7355ZM19.0073 38.8592C19.0498 38.8768 19.07 38.9256 19.0524 38.9681C19.0347 39.0106 18.986 39.0308 18.9435 39.0132L17.772 38.5279C17.7295 38.5103 17.7093 38.4616 17.7269 38.4191C17.7445 38.3765 17.7933 38.3564 17.8358 38.374L19.0073 38.8592ZM5.1086 33.1924C5.09098 33.2349 5.11118 33.2836 5.1537 33.3013L6.32516 33.7865C6.36768 33.8041 6.41643 33.7839 6.43404 33.7414C6.45166 33.6989 6.43146 33.6501 6.38894 33.6325L5.21748 33.1473C5.17496 33.1297 5.12621 33.1499 5.1086 33.1924ZM18.7015 39.5248C18.7421 39.5465 18.7574 39.597 18.7357 39.6375C18.714 39.6781 18.6635 39.6934 18.6229 39.6718L18.1437 39.4156C18.1031 39.3939 18.0878 39.3434 18.1095 39.3028C18.1312 39.2622 18.1817 39.2469 18.2223 39.2686L18.7015 39.5248ZM5.42523 32.5229C5.40353 32.5635 5.41885 32.614 5.45944 32.6357L5.9387 32.8919C5.97929 32.9136 6.02978 32.8983 6.05147 32.8577C6.07317 32.8171 6.05786 32.7666 6.01727 32.7449L5.53801 32.4887C5.49742 32.467 5.44693 32.4823 5.42523 32.5229ZM18.9435 33.1473C18.986 33.1297 19.0347 33.1499 19.0524 33.1924C19.07 33.2349 19.0498 33.2836 19.0073 33.3013L17.8358 33.7865C17.7933 33.8041 17.7445 33.7839 17.7269 33.7414C17.7093 33.6989 17.7295 33.6501 17.772 33.6325L18.9435 33.1473ZM5.10861 38.9681C5.12623 39.0106 5.17497 39.0308 5.21749 39.0132L6.38894 38.5279C6.43146 38.5103 6.45166 38.4616 6.43404 38.4191C6.41643 38.3765 6.36768 38.3564 6.32516 38.374L5.15371 38.8592C5.11119 38.8768 5.091 38.9256 5.10861 38.9681ZM19.1979 33.8341C19.2419 33.8207 19.2885 33.8456 19.3018 33.8896C19.3152 33.9337 19.2903 33.9802 19.2463 33.9936L18.7263 34.1513C18.6822 34.1647 18.6357 34.1398 18.6223 34.0958C18.609 34.0517 18.6338 34.0052 18.6779 33.9918L19.1979 33.8341ZM4.85913 38.2708C4.87249 38.3149 4.91902 38.3397 4.96306 38.3264L5.48308 38.1686C5.52712 38.1553 5.55199 38.1087 5.53863 38.0647C5.52527 38.0206 5.47874 37.9958 5.4347 38.0091L4.91468 38.1669C4.87064 38.1802 4.84577 38.2268 4.85913 38.2708ZM14.9683 43.0521C14.9258 43.0697 14.8771 43.0495 14.8594 43.007L14.3742 41.8355C14.3566 41.793 14.3768 41.7443 14.4193 41.7267C14.4618 41.7091 14.5106 41.7292 14.5282 41.7718L15.0134 42.9432C15.031 42.9858 15.0108 43.0345 14.9683 43.0521ZM9.19263 29.1084C9.1501 29.126 9.12991 29.1747 9.14753 29.2173L9.63276 30.3887C9.65038 30.4312 9.69912 30.4514 9.74164 30.4338C9.78416 30.4162 9.80436 30.3674 9.78674 30.3249L9.30151 29.1535C9.28389 29.1109 9.23515 29.0908 9.19263 29.1084ZM14.3266 43.1977C14.34 43.2417 14.3151 43.2882 14.2711 43.3016C14.227 43.315 14.1805 43.2901 14.1671 43.246L14.0094 42.726C13.996 42.682 14.0209 42.6354 14.0649 42.6221C14.109 42.6087 14.1555 42.6336 14.1689 42.6776L14.3266 43.1977ZM9.88991 28.8589C9.84587 28.8722 9.82099 28.9188 9.83435 28.9628L9.99209 29.4828C10.0054 29.5269 10.052 29.5518 10.096 29.5384C10.1401 29.525 10.1649 29.4785 10.1516 29.4345L9.99384 28.9144C9.98048 28.8704 9.93395 28.8455 9.88991 28.8589ZM13.4547 28.7444C13.4637 28.6993 13.5075 28.67 13.5527 28.6789C13.5978 28.6879 13.6271 28.7318 13.6182 28.7769L13.3708 30.0206C13.3618 30.0657 13.3179 30.095 13.2728 30.086C13.2277 30.077 13.1983 30.0332 13.2073 29.988L13.4547 28.7444ZM10.6083 43.4815C10.6534 43.4905 10.6973 43.4612 10.7063 43.4161L10.9536 42.1724C10.9626 42.1273 10.9333 42.0834 10.8881 42.0745C10.843 42.0655 10.7991 42.0948 10.7902 42.1399L10.5428 43.3835C10.5338 43.4287 10.5631 43.4726 10.6083 43.4815ZM14.1671 28.9144C14.1805 28.8704 14.227 28.8455 14.2711 28.8589C14.3151 28.8722 14.34 28.9188 14.3266 28.9628L14.1689 29.4828C14.1555 29.5269 14.109 29.5518 14.0649 29.5384C14.0209 29.525 13.996 29.4785 14.0094 29.4345L14.1671 28.9144ZM9.88991 43.3016C9.93395 43.315 9.98048 43.2901 9.99384 43.246L10.1516 42.726C10.1649 42.682 10.1401 42.6354 10.096 42.6221C10.052 42.6087 10.0054 42.6336 9.99209 42.6776L9.83435 43.1977C9.82099 43.2417 9.84587 43.2882 9.88991 43.3016ZM19.4163 37.4544C19.4614 37.4634 19.4908 37.5073 19.4818 37.5524C19.4728 37.5976 19.4289 37.6269 19.3838 37.6179L18.1402 37.3705C18.095 37.3616 18.0657 37.3177 18.0747 37.2726C18.0837 37.2274 18.1276 37.1981 18.1727 37.2071L19.4163 37.4544ZM4.67919 34.608C4.67021 34.6532 4.69952 34.697 4.74466 34.706L5.98828 34.9534C6.03342 34.9624 6.07729 34.933 6.08627 34.8879C6.09525 34.8428 6.06593 34.7989 6.02079 34.7899L4.77718 34.5426C4.73204 34.5336 4.68817 34.5629 4.67919 34.608ZM19.2463 38.1669C19.2903 38.1802 19.3152 38.2268 19.3018 38.2708C19.2885 38.3149 19.2419 38.3397 19.1979 38.3264L18.6779 38.1686C18.6338 38.1553 18.609 38.1087 18.6223 38.0647C18.6357 38.0206 18.6822 37.9958 18.7263 38.0091L19.2463 38.1669ZM4.85913 33.8896C4.84577 33.9337 4.87064 33.9802 4.91468 33.9936L5.4347 34.1513C5.47874 34.1647 5.52527 34.1398 5.53863 34.0958C5.55199 34.0517 5.52712 34.0052 5.48308 33.9918L4.96306 33.8341C4.91902 33.8207 4.87249 33.8456 4.85913 33.8896ZM18.2394 31.8647C18.2777 31.8392 18.3294 31.8495 18.355 31.8877C18.3806 31.926 18.3703 31.9778 18.332 32.0033L17.2777 32.7078C17.2394 32.7333 17.1877 32.723 17.1621 32.6848C17.1365 32.6465 17.1468 32.5948 17.1851 32.5692L18.2394 31.8647ZM5.80597 40.2727C5.83154 40.311 5.88329 40.3213 5.92156 40.2957L6.97584 39.5913C7.01411 39.5657 7.0244 39.5139 6.99884 39.4757C6.97327 39.4374 6.92152 39.4271 6.88325 39.4527L5.82896 40.1571C5.79069 40.1827 5.7804 40.2345 5.80597 40.2727ZM18.6229 32.4887C18.6635 32.467 18.714 32.4823 18.7357 32.5229C18.7574 32.5635 18.7421 32.614 18.7015 32.6357L18.2223 32.8919C18.1817 32.9136 18.1312 32.8983 18.1095 32.8577C18.0878 32.8171 18.1031 32.7666 18.1437 32.7449L18.6229 32.4887ZM5.42523 39.6375C5.44693 39.6781 5.49742 39.6934 5.53801 39.6718L6.01727 39.4156C6.05786 39.3939 6.07317 39.3434 6.05147 39.3028C6.02978 39.2622 5.97929 39.2469 5.9387 39.2686L5.45944 39.5248C5.41885 39.5465 5.40353 39.597 5.42523 39.6375ZM16.296 42.2392C16.3215 42.2774 16.3112 42.3292 16.273 42.3547C16.2347 42.3803 16.183 42.37 16.1574 42.3317L15.4529 41.2775C15.4274 41.2392 15.4377 41.1874 15.4759 41.1619C15.5142 41.1363 15.5659 41.1466 15.5915 41.1849L16.296 42.2392ZM7.88798 29.8057C7.84971 29.8313 7.83942 29.883 7.86499 29.9213L8.56944 30.9756C8.59501 31.0139 8.64676 31.0242 8.68503 30.9986C8.72329 30.973 8.73359 30.9213 8.70802 30.883L8.00356 29.8287C7.97799 29.7904 7.92624 29.7802 7.88798 29.8057ZM15.672 42.6227C15.6937 42.6633 15.6784 42.7138 15.6378 42.7355C15.5972 42.7572 15.5467 42.7419 15.525 42.7013L15.2688 42.222C15.2471 42.1814 15.2624 42.1309 15.303 42.1092C15.3436 42.0875 15.3941 42.1029 15.4158 42.1434L15.672 42.6227ZM8.52318 29.425C8.4826 29.4467 8.46728 29.4972 8.48897 29.5378L8.74514 30.017C8.76684 30.0576 8.81733 30.0729 8.85792 30.0512C8.89851 30.0295 8.91382 29.979 8.89213 29.9385L8.63596 29.4592C8.61427 29.4186 8.56377 29.4033 8.52318 29.425ZM16.1574 29.8287C16.183 29.7904 16.2347 29.7802 16.273 29.8057C16.3112 29.8313 16.3215 29.883 16.296 29.9213L15.5915 30.9756C15.5659 31.0139 15.5142 31.0242 15.4759 30.9986C15.4377 30.973 15.4274 30.9213 15.4529 30.883L16.1574 29.8287ZM7.88798 42.3547C7.92624 42.3803 7.97799 42.37 8.00356 42.3317L8.70802 41.2775C8.73359 41.2392 8.72329 41.1874 8.68503 41.1619C8.64676 41.1363 8.59501 41.1466 8.56944 41.1849L7.86499 42.2392C7.83942 42.2774 7.84971 42.3292 7.88798 42.3547ZM16.7505 30.2584C16.7797 30.2228 16.8322 30.2177 16.8678 30.2469C16.9034 30.2761 16.9085 30.3286 16.8793 30.3642L16.5346 30.7842C16.5054 30.8198 16.4529 30.825 16.4173 30.7958C16.3817 30.7666 16.3766 30.7141 16.4058 30.6785L16.7505 30.2584ZM7.29316 41.9136C7.32873 41.9428 7.38124 41.9376 7.41044 41.902L7.75519 41.482C7.78438 41.4464 7.77921 41.3939 7.74364 41.3647C7.70806 41.3355 7.65555 41.3407 7.62635 41.3762L7.28161 41.7963C7.25241 41.8319 7.25758 41.8844 7.29316 41.9136ZM18.332 40.1571C18.3703 40.1827 18.3806 40.2345 18.355 40.2727C18.3294 40.311 18.2777 40.3213 18.2394 40.2957L17.1851 39.5913C17.1468 39.5657 17.1365 39.5139 17.1621 39.4757C17.1877 39.4374 17.2394 39.4271 17.2777 39.4527L18.332 40.1571ZM5.80597 31.8877C5.7804 31.926 5.79069 31.9778 5.82896 32.0033L6.88325 32.7078C6.92152 32.7333 6.97327 32.723 6.99884 32.6848C7.0244 32.6465 7.01411 32.5948 6.97584 32.5692L5.92156 31.8647C5.88329 31.8392 5.83154 31.8495 5.80597 31.8877ZM17.9023 40.7503C17.9379 40.7795 17.943 40.832 17.9138 40.8676C17.8846 40.9031 17.8321 40.9083 17.7966 40.8791L17.3765 40.5344C17.3409 40.5052 17.3357 40.4526 17.3649 40.4171C17.3941 40.3815 17.4466 40.3763 17.4822 40.4055L17.9023 40.7503ZM6.24712 31.2929C6.21792 31.3285 6.22309 31.381 6.25867 31.4102L6.67873 31.7549C6.71431 31.7841 6.76682 31.779 6.79601 31.7434C6.82521 31.7078 6.82004 31.6553 6.78446 31.6261L6.3644 31.2814C6.32882 31.2522 6.27631 31.2573 6.24712 31.2929ZM19.3838 34.5426C19.4289 34.5336 19.4728 34.5629 19.4818 34.608C19.4908 34.6532 19.4614 34.697 19.4163 34.706L18.1727 34.9534C18.1276 34.9624 18.0837 34.933 18.0747 34.8879C18.0657 34.8428 18.095 34.7989 18.1402 34.7899L19.3838 34.5426ZM4.67919 37.5524C4.68817 37.5976 4.73204 37.6269 4.77718 37.6179L6.02079 37.3705C6.06593 37.3616 6.09525 37.3177 6.08627 37.2726C6.07729 37.2274 6.03342 37.1981 5.98828 37.2071L4.74466 37.4544C4.69952 37.4634 4.67021 37.5073 4.67919 37.5524ZM19.4992 35.2658C19.545 35.2612 19.5858 35.2946 19.5904 35.3404C19.595 35.3862 19.5616 35.427 19.5158 35.4317L18.975 35.486C18.9292 35.4906 18.8884 35.4572 18.8838 35.4114C18.8792 35.3656 18.9126 35.3248 18.9584 35.3202L19.4992 35.2658ZM4.57054 36.8211C4.57514 36.8669 4.61599 36.9003 4.66178 36.8957L5.20258 36.8414C5.24837 36.8368 5.28176 36.7959 5.27716 36.7501C5.27256 36.7043 5.23171 36.671 5.18591 36.6756L4.64512 36.7299C4.59933 36.7345 4.56593 36.7754 4.57054 36.8211ZM13.6182 43.3835C13.6271 43.4287 13.5978 43.4726 13.5527 43.4815C13.5075 43.4905 13.4637 43.4612 13.4547 43.4161L13.2073 42.1724C13.1983 42.1273 13.2277 42.0834 13.2728 42.0745C13.3179 42.0655 13.3618 42.0948 13.3708 42.1399L13.6182 43.3835ZM10.6083 28.6789C10.5631 28.6879 10.5338 28.7318 10.5428 28.7769L10.7902 30.0206C10.7991 30.0657 10.843 30.095 10.8881 30.086C10.9333 30.077 10.9626 30.0332 10.9536 29.988L10.7063 28.7444C10.6973 28.6993 10.6534 28.67 10.6083 28.6789ZM12.896 43.4989C12.9006 43.5447 12.8672 43.5856 12.8214 43.5902C12.7756 43.5948 12.7347 43.5614 12.7301 43.5156L12.6758 42.9748C12.6712 42.929 12.7046 42.8881 12.7504 42.8835C12.7962 42.8789 12.837 42.9123 12.8416 42.9581L12.896 43.4989ZM11.3406 28.5703C11.2949 28.5749 11.2615 28.6157 11.2661 28.6615L11.3204 29.2023C11.325 29.2481 11.3659 29.2815 11.4117 29.2769C11.4574 29.2723 11.4908 29.2315 11.4862 29.1857L11.4319 28.6449C11.4273 28.5991 11.3864 28.5657 11.3406 28.5703Z" fill="#DDDDDD"/>
<path d="M6.54297 41.4568L11.2074 35.1975L11.9998 35.9911L6.54297 41.4568Z" fill="#DDDDDD"/>
<path d="M11.1978 35.2077L17.457 30.5432L11.9914 36L11.1978 35.2077Z" fill="#EE4444"/>
<path d="M17.4568 30.5432L12.7923 36.8025L12 36.0089L17.4568 30.5432Z" fill="#CC0000"/>
<path d="M6.54297 41.4568L12.8022 36.7923L12.0086 36L6.54297 41.4568Z" fill="#AAAAAA"/>
<path d="M44.2648 32.3732C43.8772 31.4408 43.0922 30.4343 42.4757 30.1161C42.9774 31.0997 43.2678 32.0864 43.3788 32.8227C43.3788 32.8242 43.3793 32.8278 43.3805 32.8376C42.3721 30.3241 40.6621 29.3105 39.2658 27.1037C39.1953 26.9921 39.1246 26.8802 39.0557 26.7623C39.0206 26.7021 38.9879 26.6405 38.9575 26.5778C38.8995 26.4658 38.8547 26.3474 38.8242 26.225C38.8244 26.2192 38.8224 26.2136 38.8187 26.2091C38.8149 26.2047 38.8097 26.2019 38.8039 26.2011C38.7984 26.1996 38.7926 26.1996 38.7872 26.2011C38.7859 26.2016 38.7841 26.203 38.7827 26.2035C38.7808 26.2043 38.7783 26.2061 38.7762 26.2073C38.7772 26.2059 38.7793 26.2029 38.7799 26.2022C36.5396 27.5142 35.7796 29.9414 35.7098 31.1557C34.8152 31.2172 33.9598 31.5468 33.2553 32.1016C33.1815 32.0392 33.1044 31.981 33.0243 31.9271C32.821 31.216 32.8124 30.4633 32.9993 29.7476C32.0831 30.1648 31.3705 30.8242 30.8525 31.4064H30.8484C30.4948 30.9586 30.5198 29.4814 30.5399 29.173C30.5357 29.1539 30.2762 29.3077 30.2422 29.3309C29.9302 29.5536 29.6386 29.8035 29.3706 30.0776C29.0658 30.3868 28.7872 30.7208 28.5378 31.0763C28.5378 31.0767 28.5376 31.0773 28.5374 31.0777C28.5374 31.0772 28.5377 31.0767 28.5378 31.0763C27.9643 31.889 27.5576 32.8072 27.3412 33.778C27.3369 33.7974 27.3333 33.8174 27.3291 33.8369C27.3124 33.9154 27.2519 34.3082 27.2414 34.3935C27.2406 34.4001 27.2402 34.4064 27.2394 34.413C27.1613 34.8191 27.1129 35.2303 27.0947 35.6434C27.0947 35.6586 27.0938 35.6737 27.0938 35.689C27.0939 40.6139 31.0869 44.6062 36.0122 44.6062C40.4232 44.6062 44.0857 41.4041 44.8027 37.198C44.8178 37.0839 44.8299 36.9691 44.8432 36.854C45.0205 35.3247 44.8236 33.7173 44.2648 32.3732ZM33.9857 39.3532C34.0274 39.3731 34.0666 39.3949 34.1094 39.414C34.1112 39.4153 34.1137 39.4166 34.1155 39.4177C34.0719 39.3969 34.0286 39.3754 33.9857 39.3532V39.3532ZM43.3812 32.8398L43.38 32.8311C43.3805 32.8343 43.381 32.8376 43.3815 32.8407L43.3812 32.8398Z" fill="url(#paint2_linear_195_4175)"/>
<path d="M44.2647 32.3732C43.8771 31.4409 43.0921 30.4343 42.4756 30.1162C42.9773 31.0998 43.2677 32.0865 43.3787 32.8228C43.3787 32.8207 43.3791 32.8246 43.38 32.8312C43.3805 32.8344 43.381 32.8377 43.3815 32.8408C44.223 35.1219 43.7645 37.4416 43.104 38.859C42.082 41.0522 39.6077 43.2999 35.7349 43.1903C31.5507 43.0718 27.8644 39.9671 27.1763 35.9007C27.0509 35.2595 27.1763 34.9339 27.2394 34.4133C27.1626 34.8146 27.1333 34.9306 27.0947 35.6437C27.0947 35.6589 27.0938 35.674 27.0938 35.6892C27.0938 40.6139 31.0868 44.6062 36.0121 44.6062C40.4231 44.6062 44.0856 41.4041 44.8026 37.1981C44.8177 37.0839 44.8298 36.9692 44.8432 36.854C45.0204 35.3248 44.8235 33.7174 44.2647 32.3732Z" fill="url(#paint3_radial_195_4175)"/>
<path d="M44.2647 32.3732C43.8771 31.4409 43.0921 30.4343 42.4756 30.1162C42.9773 31.0998 43.2677 32.0865 43.3787 32.8228C43.3787 32.8207 43.3791 32.8246 43.38 32.8312C43.3805 32.8344 43.381 32.8377 43.3815 32.8408C44.223 35.1219 43.7645 37.4416 43.104 38.859C42.082 41.0522 39.6077 43.2999 35.7349 43.1903C31.5507 43.0718 27.8644 39.9671 27.1763 35.9007C27.0509 35.2595 27.1763 34.9339 27.2394 34.4133C27.1626 34.8146 27.1333 34.9306 27.0947 35.6437C27.0947 35.6589 27.0938 35.674 27.0938 35.6892C27.0938 40.6139 31.0868 44.6062 36.0121 44.6062C40.4231 44.6062 44.0856 41.4041 44.8026 37.1981C44.8177 37.0839 44.8298 36.9692 44.8432 36.854C45.0204 35.3248 44.8235 33.7174 44.2647 32.3732Z" fill="url(#paint4_radial_195_4175)"/>
<path d="M39.9309 33.4215C39.9503 33.4351 39.968 33.4487 39.9863 33.4623C39.7625 33.0651 39.4838 32.7014 39.1584 32.382C36.3861 29.6101 38.4315 26.3717 38.7764 26.2072C38.7774 26.2059 38.7795 26.2029 38.7801 26.2021C36.5398 27.5142 35.7798 29.9413 35.71 31.1557C35.8139 31.1485 35.9175 31.1397 36.0232 31.1397C37.6951 31.1397 39.1511 32.0589 39.9309 33.4215V33.4215Z" fill="url(#paint5_radial_195_4175)"/>
<path d="M36.0284 33.9749C36.0138 34.1967 35.2301 34.9617 34.956 34.9617C32.42 34.9617 32.0083 36.4956 32.0083 36.4956C32.1206 37.7874 33.0199 38.8512 34.1091 39.414C34.1588 39.4397 34.2091 39.4629 34.2594 39.4858C34.3457 39.524 34.433 39.5598 34.5213 39.5929C34.8948 39.7252 35.286 39.8006 35.6818 39.8167C40.1268 40.0252 40.9879 34.5029 37.7801 32.8993C38.6016 32.7564 39.4543 33.0868 39.9305 33.4213C39.1508 32.0588 37.6947 31.1396 36.0229 31.1396C35.9171 31.1396 35.8136 31.1484 35.7096 31.1556C34.815 31.2171 33.9597 31.5467 33.2551 32.1014C33.3911 32.2165 33.5446 32.3702 33.868 32.6888C34.4729 33.285 36.0251 33.9024 36.0284 33.9749V33.9749Z" fill="url(#paint6_radial_195_4175)"/>
<path d="M36.0284 33.9749C36.0138 34.1967 35.2301 34.9617 34.956 34.9617C32.42 34.9617 32.0083 36.4956 32.0083 36.4956C32.1206 37.7874 33.0199 38.8512 34.1091 39.414C34.1588 39.4397 34.2091 39.4629 34.2594 39.4858C34.3457 39.524 34.433 39.5598 34.5213 39.5929C34.8948 39.7252 35.286 39.8006 35.6818 39.8167C40.1268 40.0252 40.9879 34.5029 37.7801 32.8993C38.6016 32.7564 39.4543 33.0868 39.9305 33.4213C39.1508 32.0588 37.6947 31.1396 36.0229 31.1396C35.9171 31.1396 35.8136 31.1484 35.7096 31.1556C34.815 31.2171 33.9597 31.5467 33.2551 32.1014C33.3911 32.2165 33.5446 32.3702 33.868 32.6888C34.4729 33.285 36.0251 33.9024 36.0284 33.9749V33.9749Z" fill="url(#paint7_radial_195_4175)"/>
<path d="M32.8395 31.8048C32.9016 31.8449 32.9632 31.8857 33.0243 31.9273C32.8211 31.2161 32.8124 30.4634 32.9993 29.7478C32.0832 30.1649 31.3706 30.8243 30.8525 31.4066C30.8954 31.4054 32.189 31.3821 32.8395 31.8048V31.8048Z" fill="url(#paint8_radial_195_4175)"/>
<path d="M27.1761 35.9006C27.8642 39.967 31.5504 43.0717 35.7347 43.1902C39.6075 43.2998 42.0818 41.0519 43.1037 38.8589C43.7643 37.4413 44.2227 35.122 43.3813 32.8407L43.381 32.8397L43.3798 32.8311C43.3789 32.8245 43.3783 32.8206 43.3784 32.8227C43.3784 32.8242 43.379 32.8278 43.3802 32.8376C43.6965 34.9031 42.6458 36.9041 41.0033 38.2572L40.9984 38.2688C37.7979 40.8747 34.7353 39.841 34.1152 39.4179C34.0716 39.3969 34.0283 39.3754 33.9853 39.3532C32.1193 38.4615 31.3485 36.7616 31.5138 35.3037C29.9382 35.3037 29.401 33.9748 29.401 33.9748C29.401 33.9748 30.8156 32.9663 32.6799 33.8434C34.4066 34.6559 36.0282 33.9749 36.0284 33.9748C36.0251 33.9024 34.4729 33.285 33.8678 32.6888C33.5445 32.3702 33.3909 32.2166 33.255 32.1014C33.1812 32.0391 33.1041 31.9809 33.024 31.927C32.9628 31.8855 32.9012 31.8447 32.8391 31.8045C32.1887 31.3818 30.895 31.4051 30.8522 31.4062H30.8481C30.4945 30.9584 30.5195 29.4812 30.5396 29.1728C30.5354 29.1537 30.2759 29.3075 30.2419 29.3307C29.9299 29.5534 29.6382 29.8032 29.3703 30.0773C29.0654 30.3866 28.7869 30.7207 28.5375 31.0763C28.5375 31.0767 28.5373 31.0772 28.5371 31.0777C28.5371 31.0772 28.5374 31.0767 28.5375 31.0763C27.964 31.8889 27.5573 32.8072 27.3409 33.778C27.3366 33.7974 27.0199 35.1823 27.1761 35.9006V35.9006Z" fill="url(#paint9_radial_195_4175)"/>
<path d="M39.158 32.3818C39.4834 32.7013 39.7621 33.0649 39.9859 33.4622C40.035 33.4991 40.0809 33.5358 40.1198 33.5717C42.1416 35.4346 41.0823 38.0694 41.0033 38.2571C42.6458 36.9041 43.6965 34.9031 43.3802 32.8375C42.3717 30.3241 40.6618 29.3105 39.2654 27.1037C39.1949 26.9921 39.1242 26.8802 39.0554 26.7623C39.0203 26.7021 38.9875 26.6405 38.9572 26.5778C38.8992 26.4658 38.8544 26.3474 38.8238 26.225C38.8241 26.2192 38.8221 26.2136 38.8183 26.2091C38.8146 26.2047 38.8093 26.2019 38.8036 26.2011C38.7981 26.1996 38.7923 26.1996 38.7868 26.2011C38.7856 26.2016 38.7837 26.203 38.7824 26.2035C38.7804 26.2043 38.7779 26.2061 38.7759 26.2073C38.4311 26.3716 36.3858 29.61 39.158 32.3818V32.3818Z" fill="url(#paint10_radial_195_4175)"/>
<path d="M40.1201 33.5718C40.0812 33.5359 40.0353 33.4991 39.9862 33.4622C39.9681 33.4486 39.9502 33.435 39.9308 33.4214C39.4546 33.0869 38.6019 32.7565 37.7804 32.8994C40.9882 34.5031 40.127 40.0254 35.6821 39.8169C35.2862 39.8007 34.8951 39.7253 34.5216 39.5931C34.4333 39.5599 34.346 39.5242 34.2597 39.486C34.2093 39.4631 34.1591 39.4399 34.1094 39.4142C34.1112 39.4154 34.1136 39.4168 34.1154 39.4179C34.7355 39.8409 37.7981 40.8747 40.9986 38.2688L41.0036 38.2572C41.0826 38.0696 42.1419 35.4347 40.1201 33.5718V33.5718Z" fill="url(#paint11_radial_195_4175)"/>
<path d="M32.0086 36.4958C32.0086 36.4958 32.4203 34.9618 34.9563 34.9618C35.2305 34.9618 36.0143 34.1968 36.0288 33.975C36.0433 33.7532 34.4071 34.656 32.6803 33.8436C30.8159 32.9664 29.4014 33.975 29.4014 33.975C29.4014 33.975 29.9386 35.3038 31.5142 35.3038C31.3489 36.7617 32.1197 38.4619 33.9856 39.3534C34.0273 39.3733 34.0665 39.3951 34.1094 39.4142C33.0203 38.8513 32.121 37.7875 32.0086 36.4958V36.4958Z" fill="url(#paint12_radial_195_4175)"/>
<path d="M44.2647 32.3732C43.8771 31.4408 43.092 30.4343 42.4755 30.1161C42.9773 31.0997 43.2676 32.0864 43.3786 32.8227C43.3786 32.8242 43.3792 32.8278 43.3804 32.8376C42.3719 30.3241 40.6619 29.3105 39.2656 27.1037C39.1951 26.9921 39.1244 26.8802 39.0555 26.7623C39.0205 26.7021 38.9877 26.6405 38.9574 26.5778C38.8993 26.4658 38.8546 26.3474 38.824 26.225C38.8242 26.2192 38.8223 26.2136 38.8185 26.2091C38.8148 26.2047 38.8095 26.2019 38.8038 26.2011C38.7983 26.1996 38.7925 26.1996 38.787 26.2011C38.7858 26.2016 38.7839 26.203 38.7826 26.2035C38.7806 26.2043 38.7781 26.2061 38.776 26.2073C38.777 26.2059 38.7791 26.2029 38.7798 26.2022C36.5395 27.5142 35.7795 29.9414 35.7096 31.1557C35.8135 31.1485 35.9171 31.1398 36.0229 31.1398C37.6948 31.1398 39.1509 32.059 39.9305 33.4214C39.4543 33.0869 38.6016 32.7565 37.7801 32.8994C40.9879 34.5031 40.1267 40.0254 35.6818 39.8169C35.286 39.8007 34.8948 39.7253 34.5213 39.5931C34.433 39.5599 34.3457 39.5242 34.2594 39.486C34.2091 39.4631 34.1588 39.4399 34.1091 39.4142C34.1109 39.4154 34.1133 39.4168 34.1151 39.4179C34.0716 39.3969 34.0283 39.3754 33.9853 39.3532C34.027 39.3731 34.0662 39.3949 34.109 39.414C33.0198 38.8512 32.1205 37.7874 32.0082 36.4956C32.0082 36.4956 32.4198 34.9617 34.9559 34.9617C35.23 34.9617 36.0138 34.1967 36.0283 33.9749C36.025 33.9024 34.4728 33.285 33.8677 32.6888C33.5444 32.3703 33.3908 32.2167 33.2549 32.1014C33.1811 32.0391 33.104 31.9809 33.0239 31.927C32.8206 31.2159 32.812 30.4632 32.9989 29.7475C32.0827 30.1647 31.3701 30.8241 30.8521 31.4063H30.848C30.4944 30.9585 30.5194 29.4813 30.5395 29.1729C30.5353 29.1538 30.2758 29.3076 30.2418 29.3308C29.9298 29.5535 29.6381 29.8034 29.3702 30.0775C29.0654 30.3867 28.7869 30.7208 28.5377 31.0763C28.5377 31.0767 28.5374 31.0773 28.5373 31.0777C28.5373 31.0772 28.5375 31.0767 28.5377 31.0763C27.9642 31.889 27.5575 32.8072 27.341 33.778C27.3367 33.7974 27.3331 33.8174 27.329 33.8369C27.3122 33.9154 27.2367 34.3139 27.2262 34.3993C27.2254 34.4059 27.227 34.3928 27.2262 34.3993C27.1574 34.8111 27.1134 35.2266 27.0947 35.6436C27.0947 35.6588 27.0938 35.6739 27.0938 35.6891C27.0938 40.6139 31.0867 44.6062 36.012 44.6062C40.423 44.6062 44.0855 41.4041 44.8026 37.198C44.8177 37.0839 44.8298 36.9691 44.8431 36.854C45.0204 35.3247 44.8234 33.7173 44.2647 32.3732ZM43.3799 32.8311C43.3804 32.8343 43.3809 32.8376 43.3814 32.8407L43.3811 32.8398L43.3799 32.8311V32.8311Z" fill="url(#paint13_linear_195_4175)"/>
<path d="M8.70361 13.8956L11.9943 8.21923L19.4009 8.20212C19.3409 8.08553 19.2783 7.96964 19.2123 7.85478C16.9186 3.86467 11.8246 2.48945 7.83447 4.78312C6.65197 5.46289 5.69917 6.38867 5.00342 7.45873L8.70361 13.8956Z" fill="#DB4437"/>
<path d="M15.2932 13.8952L8.73198 13.8836L5.01381 7.47778C4.94284 7.58803 4.87381 7.70023 4.80734 7.81487C2.49865 11.7963 3.85465 16.8954 7.83609 19.2041C9.01606 19.8883 10.2942 20.2506 11.5688 20.3181L15.2932 13.8952Z" fill="#0F9D58"/>
<path d="M11.985 8.18848L15.2662 13.8703L11.5898 20.3001C11.7208 20.3063 11.8525 20.3097 11.985 20.3097C16.5874 20.3097 20.3183 16.5787 20.3183 11.9763C20.3183 10.6123 19.9905 9.32492 19.4096 8.18848L11.985 8.18848Z" fill="#FFCD40"/>
<path d="M12.0151 8.21606V10.2L19.4394 8.21606H12.0151Z" fill="url(#paint14_radial_195_4175)"/>
<path d="M5.00488 7.50122L10.4263 12.9217L8.73499 13.898L5.00488 7.50122Z" fill="url(#paint15_radial_195_4175)"/>
<path d="M11.6201 20.3269L13.605 12.9216L15.2963 13.8979L11.6201 20.3269Z" fill="url(#paint16_radial_195_4175)"/>
<circle cx="12.0154" cy="12.0039" r="3.78786" fill="#F1F1F1"/>
<ellipse cx="12.0152" cy="12.0039" rx="3.03031" ry="3.03031" fill="#4285F4"/>
<defs>
<linearGradient id="paint0_linear_195_4175" x1="3.3379" y1="27.3385" x2="3.3379" y2="44.6719" gradientUnits="userSpaceOnUse">
<stop stop-color="#F8F8F8"/>
<stop offset="1" stop-color="#CCCCCC"/>
</linearGradient>
<radialGradient id="paint1_radial_195_4175" cx="0" cy="0" r="1" gradientUnits="userSpaceOnUse" gradientTransform="translate(12.0025 36.0052) scale(7.94444)">
<stop stop-color="#00F0FF"/>
<stop offset="1" stop-color="#0070E0"/>
</radialGradient>
<linearGradient id="paint2_linear_195_4175" x1="42.6353" y1="29.0529" x2="28.3153" y2="42.8666" gradientUnits="userSpaceOnUse">
<stop offset="0.05" stop-color="#FFF44F"/>
<stop offset="0.37" stop-color="#FF980E"/>
<stop offset="0.53" stop-color="#FF3647"/>
<stop offset="0.7" stop-color="#E31587"/>
</linearGradient>
<radialGradient id="paint3_radial_195_4175" cx="0" cy="0" r="1" gradientUnits="userSpaceOnUse" gradientTransform="translate(39.4362 28.2518) scale(18.2401 18.5472)">
<stop offset="0.13" stop-color="#FFBD4F"/>
<stop offset="0.28" stop-color="#FF980E"/>
<stop offset="0.47" stop-color="#FF3750"/>
<stop offset="0.78" stop-color="#EB0878"/>
<stop offset="0.86" stop-color="#E50080"/>
</radialGradient>
<radialGradient id="paint4_radial_195_4175" cx="0" cy="0" r="1" gradientUnits="userSpaceOnUse" gradientTransform="translate(34.1472 35.9122) scale(18.6961 18.5472)">
<stop offset="0.3" stop-color="#960E18"/>
<stop offset="0.35" stop-color="#B11927" stop-opacity="0.74"/>
<stop offset="0.43" stop-color="#DB293D" stop-opacity="0.34"/>
<stop offset="0.5" stop-color="#F5334B" stop-opacity="0.09"/>
<stop offset="0.53" stop-color="#FF3750" stop-opacity="0"/>
</radialGradient>
<radialGradient id="paint5_radial_195_4175" cx="0" cy="0" r="1" gradientUnits="userSpaceOnUse" gradientTransform="translate(37.7626 25.3309) scale(5.98687 10.1642)">
<stop offset="0.13" stop-color="#FFF44F"/>
<stop offset="0.53" stop-color="#FF980E"/>
</radialGradient>
<radialGradient id="paint6_radial_195_4175" cx="0" cy="0" r="1" gradientUnits="userSpaceOnUse" gradientTransform="translate(33.8114 40.7003) scale(7.92222 8.68285)">
<stop offset="0.35" stop-color="#3A8EE6"/>
<stop offset="0.67" stop-color="#9059FF"/>
<stop offset="1" stop-color="#C139E6"/>
</radialGradient>
<radialGradient id="paint7_radial_195_4175" cx="0" cy="0" r="1" gradientUnits="userSpaceOnUse" gradientTransform="translate(35.165 34.005) scale(4.2067 5.12288)">
<stop offset="0.21" stop-color="#9059FF" stop-opacity="0"/>
<stop offset="0.97" stop-color="#6E008B" stop-opacity="0.6"/>
</radialGradient>
<radialGradient id="paint8_radial_195_4175" cx="0" cy="0" r="1" gradientUnits="userSpaceOnUse" gradientTransform="translate(35.4133 27.5683) scale(6.29819 6.32057)">
<stop offset="0.1" stop-color="#FFE226"/>
<stop offset="0.79" stop-color="#FF7139"/>
</radialGradient>
<radialGradient id="paint9_radial_195_4175" cx="0" cy="0" r="1" gradientUnits="userSpaceOnUse" gradientTransform="translate(41.165 23.4218) scale(30.0689 25.2412)">
<stop offset="0.11" stop-color="#FFF44F"/>
<stop offset="0.46" stop-color="#FF980E"/>
<stop offset="0.72" stop-color="#FF3647"/>
<stop offset="0.9" stop-color="#E31587"/>
</radialGradient>
<radialGradient id="paint10_radial_195_4175" cx="0" cy="0" r="1" gradientUnits="userSpaceOnUse" gradientTransform="translate(29.998 31.7574) rotate(77.3946) scale(9.53983 41.2679)">
<stop stop-color="#FFF44F"/>
<stop offset="0.3" stop-color="#FF980E"/>
<stop offset="0.57" stop-color="#FF3647"/>
<stop offset="0.74" stop-color="#E31587"/>
</radialGradient>
<radialGradient id="paint11_radial_195_4175" cx="0" cy="0" r="1" gradientUnits="userSpaceOnUse" gradientTransform="translate(35.478 29.8416) scale(17.264 16.9607)">
<stop offset="0.14" stop-color="#FFF44F"/>
<stop offset="0.48" stop-color="#FF980E"/>
<stop offset="0.66" stop-color="#FF3647"/>
<stop offset="0.9" stop-color="#E31587"/>
</radialGradient>
<radialGradient id="paint12_radial_195_4175" cx="0" cy="0" r="1" gradientUnits="userSpaceOnUse" gradientTransform="translate(39.959 30.8336) scale(20.7507 18.564)">
<stop offset="0.09" stop-color="#FFF44F"/>
<stop offset="0.63" stop-color="#FF980E"/>
</radialGradient>
<linearGradient id="paint13_linear_195_4175" x1="41.3437" y1="28.7768" x2="29.8927" y2="41.2884" gradientUnits="userSpaceOnUse">
<stop offset="0.17" stop-color="#FFF44F" stop-opacity="0.8"/>
<stop offset="0.6" stop-color="#FFF44F" stop-opacity="0"/>
</linearGradient>
<radialGradient id="paint14_radial_195_4175" cx="0" cy="0" r="1" gradientUnits="userSpaceOnUse" gradientTransform="translate(11.6536 8.21118) scale(7.96186 2.12756)">
<stop stop-color="#3E2723" stop-opacity="0.2"/>
<stop offset="1" stop-color="#3E2723" stop-opacity="0.01"/>
</radialGradient>
<radialGradient id="paint15_radial_195_4175" cx="0" cy="0" r="1" gradientUnits="userSpaceOnUse" gradientTransform="translate(4.99641 7.50774) scale(7.39055 8.72018)">
<stop stop-color="#3E2723" stop-opacity="0.2"/>
<stop offset="1" stop-color="#3E2723" stop-opacity="0.01"/>
</radialGradient>
<radialGradient id="paint16_radial_195_4175" cx="0" cy="0" r="1" gradientUnits="userSpaceOnUse" gradientTransform="translate(12 12.0168) scale(8.321 16.762)">
<stop stop-color="#263238" stop-opacity="0.2"/>
<stop offset="1" stop-color="#263238" stop-opacity="0.01"/>
</radialGradient>
</defs>
</svg>
