<svg xmlns="http://www.w3.org/2000/svg" width="48" height="48" viewBox="0 0 48 48">
  <defs>
    <radialGradient id="browsers-a" cx="85.913%" cy="-12.934%" r="128.347%" fx="85.913%" fy="-12.934%" gradientTransform="matrix(.81314 0 0 1 .16 0)">
      <stop offset="12.9%" stop-color="#FFBD4F"/>
      <stop offset="18.6%" stop-color="#FFAC31"/>
      <stop offset="24.7%" stop-color="#FF9D17"/>
      <stop offset="28.3%" stop-color="#FF980E"/>
      <stop offset="40.3%" stop-color="#FF563B"/>
      <stop offset="46.7%" stop-color="#FF3750"/>
      <stop offset="71%" stop-color="#F5156C"/>
      <stop offset="78.2%" stop-color="#EB0878"/>
      <stop offset="86%" stop-color="#E50080"/>
    </radialGradient>
    <radialGradient id="browsers-b" cx="47.778%" cy="39.538%" r="128.347%" fx="47.778%" fy="39.538%" gradientTransform="matrix(.81314 0 0 1 .09 0)">
      <stop offset="30%" stop-color="#960E18"/>
      <stop offset="35.1%" stop-color="#B11927" stop-opacity=".74"/>
      <stop offset="43.5%" stop-color="#DB293D" stop-opacity=".343"/>
      <stop offset="49.7%" stop-color="#F5334B" stop-opacity=".094"/>
      <stop offset="53%" stop-color="#FF3750" stop-opacity="0"/>
    </radialGradient>
    <radialGradient id="browsers-c" cx="49.996%" cy="-29.998%" r="314.953%" fx="49.996%" fy="-29.998%" gradientTransform="matrix(1 0 0 .58897 0 -.123)">
      <stop offset="13.2%" stop-color="#FFF44F"/>
      <stop offset="25.2%" stop-color="#FFDC3E"/>
      <stop offset="50.6%" stop-color="#FF9D12"/>
      <stop offset="52.6%" stop-color="#FF980E"/>
    </radialGradient>
    <radialGradient id="browsers-d" cx="19.455%" cy="110.087%" r="111.743%" fx="19.455%" fy="110.087%" gradientTransform="matrix(1 0 0 .91227 0 .097)">
      <stop offset="35.3%" stop-color="#3A8EE6"/>
      <stop offset="47.2%" stop-color="#5C79F0"/>
      <stop offset="66.9%" stop-color="#9059FF"/>
      <stop offset="100%" stop-color="#C139E6"/>
    </radialGradient>
    <radialGradient id="browsers-e" cx="58.238%" cy="36.619%" r="59.246%" fx="58.238%" fy="36.619%" gradientTransform="scale(1 .91227) rotate(-13.592 .73 .384)">
      <stop offset="20.6%" stop-color="#9059FF" stop-opacity="0"/>
      <stop offset="27.8%" stop-color="#8C4FF3" stop-opacity=".064"/>
      <stop offset="74.7%" stop-color="#7716A8" stop-opacity=".45"/>
      <stop offset="97.5%" stop-color="#6E008B" stop-opacity=".6"/>
    </radialGradient>
    <radialGradient id="browsers-f" cx="208.116%" cy="-103.936%" r="293.24%" fx="208.116%" fy="-103.936%" gradientTransform="matrix(1 0 0 .9963 0 -.004)">
      <stop offset="0%" stop-color="#FFE226"/>
      <stop offset="12.1%" stop-color="#FFDB27"/>
      <stop offset="29.5%" stop-color="#FFC82A"/>
      <stop offset="50.2%" stop-color="#FFA930"/>
      <stop offset="73.2%" stop-color="#FF7E37"/>
      <stop offset="79.2%" stop-color="#FF7139"/>
    </radialGradient>
    <radialGradient id="browsers-g" cx="96.221%" cy="0%" r="153.29%" fx="96.221%" fy="0%" gradientTransform="matrix(.83955 0 0 1 .154 0)">
      <stop offset="0%" stop-color="#FFF44F"/>
      <stop offset="45.6%" stop-color="#FF980E"/>
      <stop offset="62.2%" stop-color="#FF5634"/>
      <stop offset="71.6%" stop-color="#FF3647"/>
      <stop offset="100%" stop-color="#E31587"/>
    </radialGradient>
    <radialGradient id="browsers-h" cx="6.322%" cy="-10.342%" r="348.744%" fx="6.322%" fy="-10.342%" gradientTransform="scale(1 .47353) rotate(83.976 .127 -.16)">
      <stop offset="0%" stop-color="#FFF44F"/>
      <stop offset="6%" stop-color="#FFE847"/>
      <stop offset="16.8%" stop-color="#FFC830"/>
      <stop offset="30.4%" stop-color="#FF980E"/>
      <stop offset="35.6%" stop-color="#FF8B16"/>
      <stop offset="45.5%" stop-color="#FF672A"/>
      <stop offset="57%" stop-color="#FF3647"/>
      <stop offset="73.7%" stop-color="#E31587"/>
    </radialGradient>
    <radialGradient id="browsers-i" cx="15.372%" cy="-42.681%" r="238.693%" fx="15.372%" fy="-42.681%" gradientTransform="matrix(.9813 0 0 1 .003 0)">
      <stop offset="13.7%" stop-color="#FFF44F"/>
      <stop offset="48%" stop-color="#FF980E"/>
      <stop offset="59.2%" stop-color="#FF5634"/>
      <stop offset="65.5%" stop-color="#FF3647"/>
      <stop offset="90.4%" stop-color="#E31587"/>
    </radialGradient>
    <radialGradient id="browsers-j" cx="155.387%" cy="-44.592%" r="312.831%" fx="155.387%" fy="-44.592%" gradientTransform="matrix(.89553 0 0 1 .162 0)">
      <stop offset="9.4%" stop-color="#FFF44F"/>
      <stop offset="23.1%" stop-color="#FFE141"/>
      <stop offset="50.9%" stop-color="#FFAF1E"/>
      <stop offset="62.6%" stop-color="#FF980E"/>
    </radialGradient>
  </defs>
  <g fill="none" fill-rule="evenodd">
    <path fill="#1EBBEE" fill-rule="nonzero" d="M19.4927233,9.89722615 C19.4927233,8.37505006 19.0942206,6.94508901 18.3956601,5.70251825 C21.3736236,-0.954636206 15.2046412,0.0204391714 14.861264,0.0868196479 C13.5542331,0.339424272 12.3451932,0.744973102 11.2298759,1.25906298 C11.0654072,1.24991324 10.8999396,1.24488985 10.7332005,1.24488985 C6.57080838,1.24488985 3.08663378,4.11252644 2.19481586,7.95676335 C4.38866978,5.52571296 5.92401334,4.54480686 6.84353029,4.15226502 C6.69677085,4.28179665 6.55309916,4.41276354 6.41178871,4.54471716 C6.36465495,4.5885821 6.31933752,4.63307496 6.27302111,4.677209 C6.17984339,4.7657462 6.08684731,4.85437311 5.99603082,4.94380735 C5.94199501,4.99700143 5.88941226,5.05064403 5.8361938,5.10419693 C5.75554876,5.18519905 5.67526698,5.26611147 5.59652909,5.34756211 C5.54076776,5.40542077 5.48618705,5.46345883 5.43142471,5.5214072 C5.35786335,5.59909029 5.28493771,5.6768631 5.2132835,5.75490501 C5.15761299,5.81554447 5.10285065,5.87618393 5.04817913,5.9370028 C4.98024839,6.01253302 4.91304419,6.08806324 4.84656652,6.16377286 C4.79162254,6.2265652 4.73695102,6.28935755 4.68300602,6.35223959 C4.6200702,6.42561693 4.55795172,6.49899427 4.49646896,6.5723716 C4.44197906,6.63731683 4.38785244,6.70217235 4.33463397,6.76702787 C4.27705632,6.83717588 4.2207501,6.9072342 4.16453469,6.97720281 C4.10995398,7.04501854 4.0555549,7.11274456 4.00233644,7.18047059 C3.95166084,7.2449673 3.9024383,7.30919489 3.8528525,7.37351219 C3.79700036,7.4461719 3.74060332,7.51883161 3.68602261,7.59113251 C3.64706234,7.64289134 3.60964594,7.69411195 3.5714122,7.74569138 C3.22531056,8.21214878 2.90908755,8.66963585 2.62346969,9.10909254 C2.62265234,9.11016898 2.62192581,9.11124542 2.62138091,9.11232186 C2.54618486,9.22803918 2.47362248,9.34205213 2.40251317,9.45507835 C2.39869888,9.46117818 2.39470296,9.46736771 2.39088866,9.47355724 C2.31968854,9.58712168 2.25094045,9.69853323 2.18391788,9.80886835 C2.18164747,9.81272559 2.17910461,9.81667254 2.1768342,9.82052978 C1.99665428,10.1176273 1.82955195,10.4038706 1.67906902,10.6732498 C0.890146185,12.0854496 0.506083254,13.0720967 0.489463836,13.1307627 C-2.0019049,21.9281493 5.77353042,18.2129955 6.85851501,17.6585391 C8.02677833,18.2286039 9.34198272,18.5494727 10.7332913,18.5494727 C14.5420441,18.5494727 17.7827396,16.1480244 18.9888734,12.7944648 L14.3862938,12.7944648 C13.7052609,13.9310062 12.3941433,14.7006609 10.8879518,14.7006609 C8.68092949,14.7006609 6.8920263,13.0490429 6.8920263,11.0116108 L19.4210691,11.0116108 C19.4684753,10.6467873 19.4931774,10.2748772 19.4931774,9.89731585 L19.4927233,9.89731585 L19.4927233,9.89722615 Z M17.8563918,1.3828536 C18.6107136,1.88573056 19.215733,2.67547882 18.1767016,5.33509335 C17.1800814,3.75209839 15.6808828,2.51033496 13.8988817,1.8277822 C14.7095097,1.44107107 16.7170081,0.623155957 17.8563918,1.3828536 Z M1.8254652,17.6406881 C1.21100084,17.0183263 1.10247514,15.5025192 2.45818368,12.7403737 C3.14239511,14.6834379 4.5077302,16.3115536 6.27247621,17.3448465 C5.39482566,17.8218889 3.06483783,18.8962659 1.8254652,17.6406881 L1.8254652,17.6406881 Z M6.8722283,8.64523654 C6.94224782,6.66503516 8.6870142,5.07952851 10.8307374,5.07952851 C12.9744606,5.07952851 14.719227,6.66503516 14.7893373,8.64523654 L6.8722283,8.64523654 L6.8722283,8.64523654 Z" transform="translate(27 3)"/>
    <g fill-rule="nonzero" transform="translate(1 3)">
      <path fill="#DB4437" d="M6.0442,12.2746667 L9.99296667,5.46303333 L18.881,5.4425 C18.809,5.3026 18.7338667,5.16353333 18.6546333,5.0257 C15.9021333,0.237566667 9.7894,-1.4127 5.00123333,1.3397 C3.58223333,2.15543333 2.43886667,3.26636667 1.60396667,4.55043333 L6.0442,12.2746667 Z"/>
      <path fill="#0F9D58" d="M13.9521333,12.2742333 L6.07866667,12.2603667 L1.61686667,4.57336667 C1.5317,4.70566667 1.44886667,4.8403 1.3691,4.97786667 C-1.40133333,9.7556 0.225866667,15.8745667 5.0036,18.645 C6.41956667,19.4660333 7.95333333,19.9007333 9.48283333,19.9818 L13.9521333,12.2742333 Z"/>
      <path fill="#FFCD40" d="M9.9817,5.42606667 L13.9192,12.2442 L9.50753333,19.9600333 C9.6647,19.9674 9.8227,19.9715 9.9817,19.9715 C15.5045667,19.9715 19.9817,15.4943667 19.9817,9.9715 C19.9817,8.3347 19.5883667,6.7898 18.8912,5.42606667 L9.9817,5.42606667 Z"/>
      <circle cx="10.018" cy="10.005" r="4.545" fill="#F1F1F1"/>
      <circle cx="10.018" cy="10.005" r="3.636" fill="#4285F4"/>
    </g>
    <g fill-rule="nonzero" transform="translate(14 26.447)">
      <path fill="url(#browsers-a)" d="M18.654,6.70672875 C18.233,5.69372875 17.379,4.59997875 16.71025,4.25422875 C17.1872428,5.1780088 17.5182511,6.17010604 17.6915,7.19522875 L17.6915,7.20447875 L17.69325,7.21472875 C18.4400693,9.35184344 18.3320441,11.6948975 17.39175,13.7542287 C16.28125,16.1369788 13.59325,18.5792288 9.38575,18.4604788 C4.8395,18.3317287 0.83575,14.9582287 0.08725,10.5397288 C-0.049,9.84297875 0.08725,9.48972875 0.15575,8.92347875 C0.0623068725,9.36332208 0.010163599,9.810934 0,10.2604788 L0,10.3104788 C0.00440384593,15.3399714 3.85611636,19.5299862 8.86746878,19.9567919 C13.8788212,20.3835975 18.3836277,16.9052888 19.2385,11.9489788 C19.25475,11.8239788 19.268,11.7002288 19.2825,11.5739788 C19.4820669,9.92453658 19.266014,8.2513728 18.654,6.70672875 Z"/>
      <path fill="url(#browsers-b)" d="M18.654,6.70672875 C18.233,5.69372875 17.379,4.59997875 16.71025,4.25422875 C17.1872428,5.1780088 17.5182511,6.17010604 17.6915,7.19522875 L17.6915,7.20447875 L17.69325,7.21472875 C18.4400693,9.35184344 18.3320441,11.6948975 17.39175,13.7542287 C16.28125,16.1369788 13.59325,18.5792288 9.38575,18.4604788 C4.8395,18.3317287 0.83575,14.9582287 0.08725,10.5397288 C-0.049,9.84297875 0.08725,9.48972875 0.15575,8.92347875 C0.0623068725,9.36332208 0.010163599,9.810934 0,10.2604788 L0,10.3104788 C0.00440384593,15.3399714 3.85611636,19.5299862 8.86746878,19.9567919 C13.8788212,20.3835975 18.3836277,16.9052888 19.2385,11.9489788 C19.25475,11.8239788 19.268,11.7002288 19.2825,11.5739788 C19.4820669,9.92453658 19.266014,8.2513728 18.654,6.70672875 Z"/>
      <path fill="url(#browsers-c)" d="M13.9455,7.84572875 C13.9665,7.86047875 13.986,7.87522875 14.00575,7.88997875 C13.7623633,7.45840243 13.4593857,7.0632691 13.10575,6.71622875 C10.09425,3.70422875 12.3165,0.185478625 12.69125,0.006728625 L12.695,0.001228625 C10.26125,1.42622863 9.4355,4.06422875 9.3595,5.38372875 C9.4725,5.37597875 9.5845,5.36647875 9.7,5.36647875 C11.4579295,5.36969958 13.0788494,6.31627025 13.9455,7.84572875 L13.9455,7.84572875 Z"/>
      <path fill="url(#browsers-d)" d="M9.70625,8.44722875 C9.69025,8.68822875 8.83875,9.51947875 8.541,9.51947875 C5.78575,9.51947875 5.3385,11.1862288 5.3385,11.1862288 C5.4605,12.5897287 6.4385,13.7457288 7.62075,14.3572288 C7.67475,14.3852287 7.7295,14.4104787 7.78425,14.4352288 C7.87908333,14.4772287 7.97391667,14.5160621 8.06875,14.5517287 C8.4744921,14.6953254 8.89945956,14.7773189 9.3295,14.7949787 C14.15875,15.0214787 15.09425,9.01997875 11.60925,7.27847875 C12.4313876,7.17150517 13.263957,7.37365604 13.9455,7.84572875 C13.0788494,6.31627025 11.4579295,5.36969958 9.7,5.36647875 C9.585,5.36647875 9.4725,5.37597875 9.3595,5.38372875 C8.38757567,5.45053731 7.45834212,5.80869212 6.693,6.41147875 C6.84075,6.53647875 7.0075,6.70347875 7.35875,7.04972875 C8.01625,7.69747875 9.7025,8.36847875 9.70625,8.44722875 L9.70625,8.44722875 Z"/>
      <path fill="url(#browsers-e)" d="M9.70625,8.44722875 C9.69025,8.68822875 8.83875,9.51947875 8.541,9.51947875 C5.78575,9.51947875 5.3385,11.1862288 5.3385,11.1862288 C5.4605,12.5897287 6.4385,13.7457288 7.62075,14.3572288 C7.67475,14.3852287 7.7295,14.4104787 7.78425,14.4352288 C7.87908333,14.4772287 7.97391667,14.5160621 8.06875,14.5517287 C8.4744921,14.6953254 8.89945956,14.7773189 9.3295,14.7949787 C14.15875,15.0214787 15.09425,9.01997875 11.60925,7.27847875 C12.4313876,7.17150517 13.263957,7.37365604 13.9455,7.84572875 C13.0788494,6.31627025 11.4579295,5.36969958 9.7,5.36647875 C9.585,5.36647875 9.4725,5.37597875 9.3595,5.38372875 C8.38757567,5.45053731 7.45834212,5.80869212 6.693,6.41147875 C6.84075,6.53647875 7.0075,6.70347875 7.35875,7.04972875 C8.01625,7.69747875 9.7025,8.36847875 9.70625,8.44722875 L9.70625,8.44722875 Z"/>
      <path fill="url(#browsers-f)" d="M6.24125,6.08922875 C6.31975,6.13922875 6.3845,6.18272875 6.44125,6.22197875 C6.22047307,5.44921391 6.21106263,4.63136901 6.414,3.85372875 C5.5202344,4.28670939 4.7260677,4.90048813 4.08175,5.65622875 C4.129,5.65497875 5.5345,5.62972875 6.24125,6.08922875 L6.24125,6.08922875 Z"/>
      <path fill="url(#browsers-g)" d="M0.0885,10.5397288 C0.83625,14.9582287 4.84075,18.3317287 9.387,18.4604788 C13.5945,18.5794787 16.2825,16.1369788 17.393,13.7542287 C18.3332941,11.6948975 18.4413193,9.35184344 17.6945,7.21472875 L17.6945,7.20547875 C17.6945,7.19822875 17.693,7.19397875 17.6945,7.19622875 L17.69625,7.21247875 C18.04,9.45672875 16.8985,11.6309788 15.114,13.1012288 L15.1085,13.1137287 C11.6315,15.9454787 8.304,14.8222288 7.6305,14.3637287 C7.5835,14.3412288 7.5365,14.3178121 7.4895,14.2934788 C5.46225,13.3244788 4.62475,11.4774787 4.80425,9.89347875 C3.82111387,9.90798743 2.92163182,9.34219843 2.509,8.44972875 C3.59105653,7.78682579 4.93953885,7.73269344 6.07125,8.30672875 C7.21871337,8.82764342 8.52443863,8.87896797 9.70925,8.44972875 C9.7055,8.37097875 8.01925,7.69972875 7.36175,7.05222875 C7.0105,6.70597875 6.84375,6.53922875 6.696,6.41397875 C6.61615067,6.34634284 6.53269499,6.28308344 6.446,6.22447875 C6.3885,6.18522875 6.32375,6.14272875 6.246,6.09172875 C5.53925,5.63222875 4.13375,5.65747875 4.08725,5.65872875 L4.08275,5.65872875 C3.69875,5.17197875 3.72575,3.56697875 3.74775,3.23172875 C3.63414942,3.27738405 3.52570992,3.33495588 3.42425,3.40347875 C3.08526124,3.6454188 2.76835747,3.91689523 2.47725,4.21472875 C2.14433758,4.55011351 1.84010707,4.91279843 1.56775,5.29897875 L1.56775,5.30047875 L1.56775,5.29872875 C0.944810612,6.18186791 0.502974489,7.17965284 0.26775,8.23447875 C0.263,8.25422875 -0.08125,9.75922875 0.0885,10.5397288 Z"/>
      <path fill="url(#browsers-h)" d="M13.10625,6.71622875 C13.4599798,7.06365243 13.7629614,7.45921183 14.00625,7.89122875 C14.0595,7.93147875 14.10925,7.97147875 14.1515,8.01022875 C16.34825,10.0352288 15.19725,12.8977287 15.1115,13.1014787 C16.896,11.6312287 18.0365,9.45697875 17.69375,7.21272875 C16.59775,4.48022875 14.74,3.37897875 13.22275,0.980978625 C13.146,0.859728625 13.06925,0.738228625 12.9945,0.609978625 C12.95175,0.536728625 12.9175,0.470728625 12.88775,0.409978625 C12.8248228,0.288117062 12.7763282,0.159329747 12.74325,0.026228625 C12.7433418,0.0135129832 12.7338741,0.00275421012 12.72125,0.001228625 C12.715277,-0.000409542055 12.708973,-0.000409542055 12.703,0.001228625 C12.70175,0.001228625 12.69975,0.003478625 12.69825,0.003978625 C12.69675,0.004478625 12.6935,0.006728625 12.69125,0.007728625 C12.3165,0.185478625 10.09425,3.70422875 13.10625,6.71622875 L13.10625,6.71622875 Z"/>
      <path fill="url(#browsers-i)" d="M14.15,8.00897875 C14.10775,7.97022875 14.058,7.93022875 14.00475,7.88997875 C13.985,7.87522875 13.9655,7.86047875 13.9445,7.84572875 C13.262957,7.37365604 12.4303876,7.17150517 11.60825,7.27847875 C15.09325,9.02097875 14.15825,15.0214787 9.3285,14.7949788 C8.89845956,14.7773189 8.4734921,14.6953254 8.06775,14.5517288 C7.97291667,14.5162287 7.87808333,14.4773954 7.78325,14.4352288 C7.7285,14.4102287 7.67375,14.3852287 7.61975,14.3572288 L7.6265,14.3614788 C8.3,14.8212288 11.6265,15.9444788 15.1045,13.1114788 L15.11,13.0989788 C15.19675,12.8964788 16.34775,10.0332288 14.15,8.00897875 L14.15,8.00897875 Z"/>
      <path fill="url(#browsers-j)" d="M5.3385,11.1862287 C5.3385,11.1862287 5.78575,9.51947875 8.541,9.51947875 C8.83875,9.51947875 9.691,8.68822875 9.70625,8.44722875 C8.52143863,8.87646797 7.21571337,8.82514342 6.06825,8.30422875 C4.93653885,7.73019344 3.58805653,7.78432579 2.506,8.44722875 C2.91863182,9.33969843 3.81811387,9.90548743 4.80125,9.89097875 C4.62175,11.4752287 5.45925,13.3222288 7.4865,14.2909788 C7.53175,14.3127288 7.57425,14.3362288 7.62075,14.3569787 C6.4375,13.7457288 5.4605,12.5897287 5.3385,11.1862287 L5.3385,11.1862287 Z"/>
    </g>
  </g>
</svg>
