<?xml version="1.0" encoding="UTF-8"?>
<svg width="48px" height="48px" viewBox="0 0 48 48" version="1.1" xmlns="http://www.w3.org/2000/svg" xmlns:xlink="http://www.w3.org/1999/xlink">
    <!-- Generator: Sketch 61.2 (89653) - https://sketch.com -->
    <title>illustration/bug</title>
    <desc>Created with Sketch.</desc>
    <g id="illustration/bug" stroke="none" stroke-width="1" fill="none" fill-rule="evenodd">
        <path d="M11.8024687,15.2113227 C14.6173811,12.0390488 18.2165077,9.96132999 21.9166838,9.21872931 L21.9166838,4.60887491 C21.9166838,3.17900678 23.075821,2.01986963 24.5056891,2.01986963 C25.9355572,2.01986963 27.0946944,3.17900678 27.0946944,4.60887491 L27.0946944,9.07599301 C28.7393358,9.32691178 30.3396454,9.87239457 31.8329029,10.7345272 C33.1436978,11.4913149 34.284432,12.4415373 35.2468311,13.5409848 L38.9061968,11.428249 C40.1444989,10.713315 41.7279097,11.1375886 42.4428438,12.3758907 C43.1577779,13.6141929 42.7335042,15.1976036 41.4952021,15.9125377 L37.8974582,17.9896961 C39.3067716,21.6904315 39.3833342,26.0783671 37.9711013,30.3197898 L11.8024687,15.2113227 Z M15.8111023,43.3894753 L24.2737278,28.7317779 L35.466391,35.193865 C30.8631482,42.4119849 22.6421168,45.7316548 15.8111023,43.3894753 L15.8111023,43.3894753 Z M11.3268136,40.80047 C5.88291936,36.0557277 4.64732214,27.2762707 8.59677593,19.6806855 L19.7894391,26.1427726 L11.3268136,40.80047 L11.3268136,40.80047 Z" id="Combined-Shape" fill="#FA7240"></path>
    </g>
</svg>