<svg xmlns="http://www.w3.org/2000/svg" width="48" height="48" viewBox="0 0 48 48">
  <g fill="none" fill-rule="evenodd" transform="translate(2.197 2.92)">
    <circle cx="21.566" cy="13.271" r="13.271" fill="#FC521F" opacity=".6"/>
    <circle cx="13.271" cy="29.387" r="13.271" fill="#66BF3C" opacity=".6"/>
    <path fill="#FF5F95" d="M13.271432,16.1153103 C19.3465486,16.1153103 24.4682756,20.197256 26.0435222,25.7680566 C24.6451054,26.269755 23.1374853,26.542864 21.566077,26.542864 C15.4909605,26.542864 10.3692334,22.4609183 8.79398681,16.8901177 C10.1929662,16.3883174 11.700317,16.1153103 13.271432,16.1153103 Z"/>
    <circle cx="30.335" cy="29.387" r="13.271" fill="#1EA7FD" opacity=".6"/>
    <path fill="#87E6E5" d="M21.8033169,19.2208196 C24.7010339,21.6553158 26.542864,25.3059378 26.542864,29.3867423 C26.542864,33.4675469 24.7010339,37.1181689 21.8033169,39.552665 C18.9048756,37.1177242 17.0632697,33.4672983 17.0632697,29.3867423 C17.0632697,25.3606188 18.8560712,21.7532265 21.6869031,19.3193363 Z"/>
    <path fill="#FBD178" d="M30.3347018,16.1153103 C31.7445824,16.1153103 33.1031147,16.3351584 34.3778872,16.7424429 C32.8519848,22.3895688 27.694058,26.542864 21.566077,26.542864 C20.1558277,26.542864 18.7969535,26.322901 17.5218915,25.9154119 C19.0481864,20.2690949 24.2063599,16.1153103 30.3347018,16.1153103 Z"/>
    <path fill="#FFF" d="M21.8033169,19.2208196 L21.8154995,19.2310671 C21.9778413,19.3677881 22.1368587,19.5083306 22.2924132,19.6525558 L22.1927524,19.5610879 C22.2702505,19.6314951 22.3469122,19.7028066 22.4227209,19.7750057 L22.2924132,19.6525558 C22.3721307,19.7264674 22.4509388,19.8013463 22.5288188,19.8771736 L22.4227209,19.7750057 C22.4938323,19.8427312 22.5641931,19.9112378 22.6337895,19.9805116 L22.5288188,19.8771736 C22.615133,19.961213 22.7003072,20.0464175 22.7843159,20.1327617 L22.6337895,19.9805116 C22.7103675,20.0567346 22.78602,20.1338866 22.8607288,20.2119491 L22.8609189,20.2121477 C23.1171524,20.4798838 23.3624579,20.7585462 23.5959044,21.0471951 L23.5261243,20.961641 C23.6016667,21.0534814 23.6759994,21.1463544 23.749098,21.2402356 L23.5959044,21.0471951 C23.6654925,21.1332386 23.7340269,21.2201695 23.8014879,21.3079682 L23.749098,21.2402356 C23.8105031,21.3190987 23.8710373,21.3986732 23.9306862,21.4789447 L23.8014879,21.3079682 C23.8694164,21.3963752 23.9362565,21.4856621 24.0019882,21.5758087 L23.9306862,21.4789447 C24.0079149,21.5828738 24.0836595,21.6879713 24.1578888,21.7942058 L24.0019882,21.5758087 C24.0709224,21.6703472 24.1386375,21.7658313 24.2051105,21.8622379 L24.1578888,21.7942058 C24.2160682,21.8774702 24.2733167,21.9614331 24.3296192,22.0460793 L24.2051105,21.8622379 C24.2709457,21.9577194 24.3355625,22.0541058 24.3989385,22.1513747 L24.3989965,22.1514637 C24.5394049,22.3669613 24.6737759,22.5868827 24.8018068,22.8108945 L24.7441331,22.7109961 C24.8003775,22.8074474 24.8554405,22.9046721 24.9093021,23.0026505 L24.8018068,22.8108945 C24.8570517,22.9075548 24.9111161,23.0049766 24.9639805,23.1031404 L24.9637325,23.1026799 C25.0727345,23.3050856 25.1764095,23.5101708 25.2748346,23.7182251 L25.2745944,23.7177174 C25.357261,23.8924607 25.4360054,24.0687786 25.5109675,24.2470783 C25.5660832,24.3781682 25.6192112,24.5104781 25.67025,24.6438217 L25.6073789,24.4827389 C25.6422151,24.5702929 25.6761461,24.6583053 25.7091605,24.7467646 L25.67025,24.6438217 C25.7096799,24.7468358 25.7478628,24.8504668 25.7847804,24.9546963 L25.7091605,24.7467646 C25.7495409,24.8549607 25.78855,24.9638252 25.8261666,25.073337 L25.7847804,24.9546963 C25.8175647,25.047256 25.8493511,25.1402876 25.8801266,25.2337782 L25.8261666,25.073337 C25.8648934,25.1860812 25.9021443,25.2995115 25.9378963,25.4136049 L25.8801266,25.2337782 C25.9142877,25.3375535 25.9472034,25.4418943 25.9788559,25.546783 L25.9787466,25.5464209 L26.0438805,25.7684425 C26.0315363,25.7728664 26.0191836,25.7772726 26.0068226,25.7816609 L26.0435222,25.7680566 C25.7548376,25.8716256 25.4614991,25.965453 25.1639063,26.0491472 L25.1640634,26.0493396 C24.8726167,26.1310686 24.5772511,26.2032815 24.2781843,26.2654186 L24.3416334,26.2521701 C24.1931887,26.2837575 24.0438258,26.3128629 23.8935902,26.3394406 L24.2781843,26.2654186 C24.1398071,26.2941692 24.0006375,26.3207627 23.8607127,26.3451626 L23.8935902,26.3394406 C23.7397502,26.3666561 23.5849951,26.3912212 23.4293738,26.4130872 L23.8607127,26.3451626 C23.7048484,26.3723421 23.548047,26.3967999 23.3903597,26.4184856 L23.4293738,26.4130872 C23.2964329,26.4317664 23.1628598,26.448476 23.0286851,26.4631854 L23.3903597,26.4184856 C23.2357645,26.4397462 23.0803179,26.4583423 22.9240681,26.4742268 L23.0286851,26.4631854 C22.8601235,26.4816645 22.6906124,26.496987 22.5202122,26.5090924 L22.9240681,26.4742268 C22.769201,26.4899707 22.6135448,26.5030506 22.4571468,26.5134204 L22.5202122,26.5090924 C22.3643287,26.5201665 22.2077011,26.5285483 22.0503757,26.5341917 L22.4571468,26.5134204 C22.3129105,26.5229839 22.1680431,26.5302423 22.0225816,26.5351596 L22.0503757,26.5341917 C21.8896547,26.5399568 21.7282054,26.542864 21.566077,26.542864 L21.1160811,26.5353784 C21.102379,26.5349219 21.0886822,26.5344446 21.0749906,26.5339465 C20.7626944,26.522583 20.4532993,26.5004449 20.147016,26.4678878 L20.1917641,26.472568 C20.0498816,26.4579709 19.9086618,26.4411387 19.7681405,26.4221071 L20.147016,26.4678878 C19.9945184,26.4516777 19.8427923,26.4328848 19.6918821,26.4115535 L19.7681405,26.4221071 C19.6056196,26.4000959 19.444033,26.3751429 19.283436,26.3473033 L19.6918821,26.4115535 C19.5382851,26.3898425 19.3855334,26.365502 19.233674,26.3385791 L19.283436,26.3473033 C19.1536954,26.3248127 19.0246007,26.3004381 18.8961811,26.2742089 L19.233674,26.3385791 C19.080307,26.3113888 18.9278502,26.2815646 18.7763519,26.2491548 L18.8961811,26.2742089 C18.729774,26.2402209 18.5645004,26.2031187 18.400424,26.1629657 L18.7763519,26.2491548 C18.6285429,26.2175342 18.4816463,26.1834525 18.3357072,26.1469545 L18.400424,26.1629657 C18.2627353,26.1292704 18.1258896,26.0934267 17.9899245,26.0554723 L18.3357072,26.1469545 C18.1961491,26.1120524 18.0574666,26.0749408 17.9196988,26.035659 L17.9200398,26.0357562 L17.5218915,25.9154119 L17.5218915,25.9154119 L17.5911657,25.6685708 C17.6197296,25.5705065 17.6493946,25.4729113 17.6801466,25.3757995 L17.651071,25.4689552 C17.6919709,25.3364079 17.7348909,25.2047473 17.779795,25.0740093 L17.6801466,25.3757995 C17.714775,25.2664464 17.7507817,25.1577063 17.7881462,25.0495996 L17.7883785,25.0490997 C17.9182912,24.6730509 18.0649097,24.3041866 18.22714,23.9438683 L18.1481549,24.1230262 C18.193007,24.01933 18.2391436,23.9163193 18.2865447,23.8140141 L18.22714,23.9438683 C18.2641279,23.8617172 18.3019273,23.7800103 18.340528,23.6987578 L18.2865447,23.8140141 C18.3375403,23.7039508 18.3899995,23.5947042 18.4438971,23.4862991 L18.340528,23.6987578 C18.390191,23.5942201 18.4411803,23.4904346 18.4934743,23.3874231 L18.4438971,23.4862991 C18.4847379,23.4041553 18.5264047,23.3224948 18.5688866,23.2413284 L18.5689476,23.2410174 C18.6465926,23.0928622 18.7270259,22.9460491 18.8101198,22.8009557 C19.0080896,22.4550802 19.2212968,22.1189627 19.4487257,21.7935178 L19.3317206,21.9639129 C19.3907377,21.8766015 19.4507665,21.7900303 19.5117902,21.7042161 L19.4487257,21.7935178 C19.5023898,21.7167259 19.5568457,21.6405283 19.6120815,21.5649367 L19.5117902,21.7042161 C19.5857002,21.6002805 19.6610697,21.4974555 19.7378687,21.3957707 L19.6120815,21.5649367 C19.675342,21.4783631 19.7396256,21.3925845 19.8049144,21.3076187 L19.8047564,21.3079674 C20.1210458,20.8962104 20.4607463,20.5038571 20.8219965,20.1325782 L20.6326962,20.3312846 C20.7064465,20.2523007 20.7811498,20.1742182 20.8567877,20.0970554 L20.8219965,20.1325782 C20.8865959,20.0661854 20.9518844,20.0004665 21.0178505,19.9354331 L20.8567877,20.0970554 C20.9341219,20.0181624 21.012433,19.9402308 21.0917017,19.8632803 L21.0178505,19.9354331 C21.085188,19.8690476 21.1532314,19.8033765 21.2219686,19.7384318 L21.0917017,19.8632803 C21.1883068,19.7695004 21.286334,19.6771776 21.3857479,19.5863474 L21.2219686,19.7384318 C21.2943306,19.6700624 21.3674613,19.6024982 21.4413466,19.5357535 L21.3857479,19.5863474 C21.4746585,19.5051136 21.5646782,19.4250737 21.6557817,19.3462529 L21.6556636,19.3462795 C21.6945731,19.3126914 21.733561,19.279351 21.7727435,19.2462336 L21.8033169,19.2208196 Z"/>
  </g>
</svg>
