<?xml version="1.0" encoding="UTF-8"?>
<svg width="140px" height="140px" viewBox="0 0 140 140" version="1.1" xmlns="http://www.w3.org/2000/svg" xmlns:xlink="http://www.w3.org/1999/xlink">
    <title>addons/custom</title>
    <g id="addons/custom" stroke="none" stroke-width="1" fill="none" fill-rule="evenodd">
        <path d="M76.2765127,40.8387097 C77.2458047,40.5973351 78.06668,40.3603654 78.5311601,40.1200321 C80.3831974,39.1617434 81.5296689,35.9872426 81.5296689,33.2831385 C81.5296689,29.759877 79.2344108,27.2868443 76.6791228,25.1183248 C74.8436395,23.5606603 74.3332478,20.661115 74.3332478,17.9925883 C74.3332478,11.3692647 79.7031603,6 86.327283,6 C92.9514057,6 98.3213182,11.3692647 98.3213182,17.9925883 C98.3213182,21.0551618 97.1731956,23.8496091 95.283839,25.9690909 C93.1167114,27.670652 91.7245989,30.3143422 91.7245989,33.2831385 C91.7245989,35.9872426 92.6991142,38.4710513 94.7231077,39.8041084 C95.4043424,40.2527881 96.977259,40.5670366 98.7644396,40.8387097 L133.84367,40.8387097 C137.201922,40.8387097 139.924323,43.5621388 139.924323,46.921659 L139.924323,119.917051 C139.924323,123.276571 137.201922,126 133.84367,126 L40.8544818,126 C37.4962299,126 34.7738287,123.276571 34.7738287,119.917051 L34.7738287,93.8700212 C34.5272036,92.873869 34.2853411,92.0279055 34.0399723,91.5535714 C33.0818066,89.7012962 29.9077136,88.5546774 27.2039568,88.5546774 C23.6811479,88.5546774 21.2084329,90.8502304 19.0401919,93.4058466 C17.4827275,95.2415658 14.5835546,95.752023 11.9153707,95.752023 C5.29289782,95.752023 -0.0756771964,90.3814207 -0.0756771964,83.756447 C-0.0756771964,77.1314733 5.29289782,71.760871 11.9153707,71.760871 C14.9775508,71.760871 17.7716392,72.9091411 19.8908487,74.7987404 C21.5921912,76.9661464 24.2355419,78.3584378 27.2039568,78.3584378 C29.9077136,78.3584378 32.3912032,77.3837972 33.7240891,75.3595438 C34.1811427,74.6654166 34.4986825,73.0456567 34.7738287,71.2166909 L34.7738287,46.921659 C34.7738287,43.5621388 37.4962299,40.8387097 40.8544818,40.8387097 L76.2765127,40.8387097 Z" id="Path" fill="#79BFF8"></path>
        <g id="code" transform="translate(50.954095, 48.828559)" fill="#C0E6FF">
            <path d="M26.5533124,63.1959278 C28.539389,63.1959278 30.1494222,64.8081465 30.1494222,66.7969191 C30.1494222,68.7856917 28.539389,70.3979104 26.5533124,70.3979104 L10.370818,70.3979104 C8.38474132,70.3979104 6.7747081,68.7856917 6.7747081,66.7969191 C6.7747081,64.8081465 8.38474132,63.1959278 10.370818,63.1959278 L26.5533124,63.1959278 Z M31.9474772,50.5924583 C33.9335538,50.5924583 35.543587,52.204677 35.543587,54.1934496 C35.543587,56.1822222 33.9335538,57.7944409 31.9474772,57.7944409 L19.3610926,57.7944409 C17.375016,57.7944409 15.7649828,56.1822222 15.7649828,54.1934496 C15.7649828,52.204677 17.375016,50.5924583 19.3610926,50.5924583 L31.9474772,50.5924583 Z M52.6251089,50.5924583 C54.6111855,50.5924583 56.2212187,52.204677 56.2212187,54.1934496 C56.2212187,56.1822222 54.6111855,57.7944409 52.6251089,57.7944409 L44.5338617,57.7944409 C42.547785,57.7944409 40.9377518,56.1822222 40.9377518,54.1934496 C40.9377518,52.204677 42.547785,50.5924583 44.5338617,50.5924583 L52.6251089,50.5924583 Z M71.5046857,37.9889888 C73.4907623,37.9889888 75.1007955,39.6012075 75.1007955,41.5899801 C75.1007955,43.5787526 73.4907623,45.1909713 71.5046857,45.1909713 L19.3610926,45.1909713 C17.375016,45.1909713 15.7649828,43.5787526 15.7649828,41.5899801 C15.7649828,39.6012075 17.375016,37.9889888 19.3610926,37.9889888 L71.5046857,37.9889888 Z M56.2212187,25.3855192 C58.2072954,25.3855192 59.8173286,26.997738 59.8173286,28.9865105 C59.8173286,30.9752831 58.2072954,32.5875018 56.2212187,32.5875018 L19.3610926,32.5875018 C17.375016,32.5875018 15.7649828,30.9752831 15.7649828,28.9865105 C15.7649828,26.997738 17.375016,25.3855192 19.3610926,25.3855192 L56.2212187,25.3855192 Z M41.8367793,12.7820497 C43.8228559,12.7820497 45.4328892,14.3942684 45.4328892,16.383041 C45.4328892,18.3718136 43.8228559,19.9840323 41.8367793,19.9840323 L10.370818,19.9840323 C8.38474132,19.9840323 6.7747081,18.3718136 6.7747081,16.383041 C6.7747081,14.3942684 8.38474132,12.7820497 10.370818,12.7820497 L41.8367793,12.7820497 Z M26.5533124,0.178580183 C28.539389,0.178580183 30.1494222,1.7907989 30.1494222,3.77957148 C30.1494222,5.76834405 28.539389,7.38056277 26.5533124,7.38056277 L4.0776257,7.38056277 C2.09154906,7.38056277 0.481515831,5.76834405 0.481515831,3.77957148 C0.481515831,1.7907989 2.09154906,0.178580183 4.0776257,0.178580183 L26.5533124,0.178580183 Z" id="Combined-Shape"></path>
        </g>
    </g>
</svg>
