<svg xmlns="http://www.w3.org/2000/svg" width="48" height="48" viewBox="0 0 48 48">
  <g fill="none" fill-rule="evenodd">
    <path fill="#ABEDEC" d="M13,11 L46,11 C47.1045695,11 48,11.8954305 48,13 L48,46 C48,47.1045695 47.1045695,48 46,48 L13,48 C11.8954305,48 11,47.1045695 11,46 L11,13 C11,11.8954305 11.8954305,11 13,11 Z" opacity=".2"/>
    <path fill="#1EA7FD" fill-opacity=".1" fill-rule="nonzero" d="M13,13 L13,46 L46,46 L46,13 L13,13 Z M13,11 L46,11 C47.1045695,11 48,11.8954305 48,13 L48,46 C48,47.1045695 47.1045695,48 46,48 L13,48 C11.8954305,48 11,47.1045695 11,46 L11,13 C11,11.8954305 11.8954305,11 13,11 Z"/>
    <circle cx="12" cy="12" r="12" fill="#78CAFE"/>
    <path fill="#FFF" fill-rule="nonzero" d="M16.1132813,11.2382812 L12.7617188,11.2382812 L12.7617188,7.88671875 C12.7617188,7.46625 12.4204688,7.125 12,7.125 C11.5795312,7.125 11.2382812,7.46625 11.2382812,7.88671875 L11.2382812,11.2382812 L7.88671875,11.2382812 C7.46625,11.2382812 7.125,11.5795312 7.125,12 C7.125,12.4204688 7.46564062,12.7617188 7.88671875,12.7617188 L11.2382812,12.7617188 L11.2382812,16.1132813 C11.2382812,16.53375 11.5795312,16.875 12,16.875 C12.4204688,16.875 12.7617188,16.5343594 12.7617188,16.1132813 L12.7617188,12.7617188 L16.1132813,12.7617188 C16.53375,12.7617188 16.875,12.4204688 16.875,12 C16.875,11.5795312 16.53375,11.2382812 16.1132813,11.2382812 Z"/>
    <path fill="#37D5D3" d="M38.0263158,26.8333333 L38.0263158,39.5 C38.0263158,40.0522847 37.5786005,40.5 37.0263158,40.5 L31.5,40.5 C30.9477153,40.5 30.5,40.0522847 30.5,39.5 L30.5,34.1666667 C30.5,33.6143819 30.0522847,33.1666667 29.5,33.1666667 L23.9736842,33.1666667 C23.4213995,33.1666667 22.9736842,32.7189514 22.9736842,32.1666667 L22.9736842,19.5 C22.9736842,18.9477153 23.4213995,18.5 23.9736842,18.5 L29.5,18.5 C30.0522847,18.5 30.5,18.9477153 30.5,19.5 L30.5,24.8333333 C30.5,25.3856181 30.9477153,25.8333333 31.5,25.8333333 L37.0263158,25.8333333 C37.5786005,25.8333333 38.0263158,26.2810486 38.0263158,26.8333333 Z"/>
  </g>
</svg>
