<svg width="48" height="48" viewBox="0 0 48 48" fill="none" xmlns="http://www.w3.org/2000/svg">
<path d="M7 0C4.79083 0 3 1.79083 3 4V44C3 46.2092 4.79083 48 7 48H41C43.2092 48 45 46.2092 45 44V9L36 0H7Z" fill="#D7F7F6"/>
<rect x="9" y="17" width="9" height="5" rx="2" fill="#37D5D3" fill-opacity="0.85"/>
<rect x="20" y="17" width="19" height="5" rx="2" fill="#37D5D3" fill-opacity="0.85"/>
<rect x="9" y="26" width="9" height="5" rx="2" fill="#37D5D3" fill-opacity="0.85"/>
<rect x="20" y="26" width="19" height="5" rx="2" fill="#37D5D3" fill-opacity="0.85"/>
<rect x="9" y="35" width="9" height="5" rx="2" fill="#37D5D3" fill-opacity="0.85"/>
<rect x="20" y="35" width="19" height="5" rx="2" fill="#37D5D3" fill-opacity="0.85"/>
<path d="M36 0V5C36 7.20914 37.7909 9 40 9H45L36 0Z" fill="#37D5D3" fill-opacity="0.85"/>
</svg>
