<?xml version="1.0" encoding="UTF-8"?>
<svg width="48px" height="48px" viewBox="0 0 48 48" version="1.1" xmlns="http://www.w3.org/2000/svg" xmlns:xlink="http://www.w3.org/1999/xlink">
    <title>illustration/email</title>
    <g id="illustration/email" stroke="none" stroke-width="1" fill="none" fill-rule="evenodd">
        <path d="M44,7 C44.8284271,7 45.5784271,7.33578644 46.1213203,7.87867966 C46.6642136,8.42157288 47,9.17157288 47,10 L47,10 L47,38 C47,38.8284271 46.6642136,39.5784271 46.1213203,40.1213203 C45.5784271,40.6642136 44.8284271,41 44,41 L44,41 L4,41 C3.17157288,41 2.42157288,40.6642136 1.87867966,40.1213203 C1.33578644,39.5784271 1,38.8284271 1,38 L1,38 L1,10 C1,9.17157288 1.33578644,8.42157288 1.87867966,7.87867966 C2.42157288,7.33578644 3.17157288,7 4,7 L4,7 Z" id="Mask" stroke-opacity="0.1" stroke="#1EA7FD" stroke-width="2" fill="#61C1FD"></path>
        <path d="M44.0000777,6 C44.5273058,6 45.0307099,6.10200302 45.4916319,6.28735104 L24.0000777,22.9655376 L2.50864738,6.28730118 C2.96953567,6.10198472 3.47289675,6 4.00007765,6 L44.0000777,6 Z" id="Path" fill="#D7EEFE"></path>
        <path d="M2.50958885,6.28700379 L24.0002793,22.9655376 L45.4918336,6.28735104 C46.962221,6.87862985 48.0002793,8.31808917 48.0002793,10 L48.0002793,10.524 L24.0002793,29.1496953 L0,10.524 L0,10 C0,8.31775983 1.03874412,6.87806612 2.50958885,6.28700379 Z" id="Path" fill="#C0E6FF"></path>
    </g>
</svg>