<?xml version="1.0" encoding="UTF-8"?>
<svg width="48px" height="48px" viewBox="0 0 48 48" version="1.1" xmlns="http://www.w3.org/2000/svg" xmlns:xlink="http://www.w3.org/1999/xlink">
    <title>749FD8A6-2E09-4546-933C-33E300FB365B</title>
    <g id="Chromatic-app" stroke="none" stroke-width="1" fill="none" fill-rule="evenodd">
        <g id="ManageScreen/AccessTab" transform="translate(-130.000000, -2183.000000)">
            <g id="section-browser-copy-8" transform="translate(100.000000, 2118.000000)">
                <g id="illustrations/delete" transform="translate(30.000000, 64.000000)">
                    <path d="M34.8961869,15.7964705 L20.4072684,31.1004522 L13.103862,23.0383415 C12.5945903,22.4761648 11.7690122,22.4763088 11.2599362,23.0383415 C10.7506645,23.6003742 10.7506645,24.5117163 11.2599362,25.073749 L19.4601092,34.1257856 C19.738996,34.4364508 20.0731648,34.5768511 20.4072684,34.5764912 C20.741372,34.5768511 21.0755407,34.4364508 21.3304373,34.1550747 C21.338521,34.1461512 36.7401127,17.8318061 36.7401127,17.8318061 C37.2493192,17.2697734 37.2493192,16.3586472 36.7401127,15.7964705 C36.2309063,15.2345098 35.4053282,15.2345098 34.8961869,15.7964705 Z" id="Mask" fill="#FFFFFF"></path>
                    <circle id="Oval" fill="#79C9FC" fill-rule="nonzero" cx="24" cy="24.975746" r="24"></circle>
                    <path d="M29.274,24.953746 C29.274,27.8664957 26.9127498,30.227746 24,30.227746 C21.0872502,30.227746 18.726,27.8664957 18.726,24.953746 C18.726,22.0409962 21.0872502,19.679746 24,19.679746 C26.9127498,19.679746 29.274,22.0409962 29.274,24.953746 Z M32.662,28.457746 C31.314,29.605746 29.95,30.511746 28.608,31.151746 C27.028,31.903746 25.478,32.283746 24,32.283746 C22.52,32.283746 20.97,31.903746 19.392,31.151746 C18.05,30.511746 16.686,29.605746 15.338,28.457746 C14.0960366,27.3943764 12.9527195,26.2209367 11.922,24.951746 C12.95298,23.6827871 14.0962752,22.50937 15.338,21.445746 C16.686,20.299746 18.05,19.393746 19.392,18.753746 C20.972,18.001746 22.52,17.619746 24,17.619746 C25.48,17.619746 27.03,17.999746 28.608,18.753746 C29.948,19.393746 31.314,20.299746 32.662,21.445746 C34.232,22.781746 35.422,24.145746 36.078,24.951746 C35.047256,26.220915 33.903941,27.3943525 32.662,28.457746 Z M38.552,24.323746 C38.288,23.953746 32.01,15.275746 24,15.275746 C15.988,15.275746 9.712,23.955746 9.448,24.323746 L9,24.951746 L9.448,25.581746 C9.712,25.951746 15.988,34.627746 24,34.627746 C32.01,34.627746 38.288,25.951746 38.552,25.581746 L39,24.951746 L38.552,24.323746 Z" id="Page-1" fill="#FFFFFF" fill-rule="nonzero"></path>
                </g>
            </g>
        </g>
    </g>
</svg>