<svg xmlns="http://www.w3.org/2000/svg" xmlns:xlink="http://www.w3.org/1999/xlink" width="48" height="48" version="1.1" viewBox="0 0 48 48"><title>illustration/projects</title><desc>Created with Sketch.</desc><g id="illustration/projects" fill="none" fill-rule="evenodd" stroke="none" stroke-width="1"><path id="Combined-Shape" fill="#79C9FC" d="M16,3 L39,3 C40.6568542,3 42,4.34314575 42,6 C42,7.65685425 40.6568542,9 39,9 L16,9 C14.3431458,9 13,7.65685425 13,6 C13,4.34314575 14.3431458,3 16,3 Z M16,27 L43,27 C44.6568542,27 46,28.3431458 46,30 C46,31.6568542 44.6568542,33 43,33 L16,33 C14.3431458,33 13,31.6568542 13,30 C13,28.3431458 14.3431458,27 16,27 Z M16,39 L30,39 C31.6568542,39 33,40.3431458 33,42 C33,43.6568542 31.6568542,45 30,45 L16,45 C14.3431458,45 13,43.6568542 13,42 C13,40.3431458 14.3431458,39 16,39 Z M16,15 L36,15 C37.6568542,15 39,16.3431458 39,18 C39,19.6568542 37.6568542,21 36,21 L16,21 C14.3431458,21 13,19.6568542 13,18 C13,16.3431458 14.3431458,15 16,15 Z"/><path id="Combined-Shape" fill="#A0DB77" d="M6.78248877,5.51277681 C7.07250374,5.70218868 7.07250374,6.01209704 6.78248877,6.20150892 L1.52730803,9.63343918 C1.44329744,9.68831439 1.36370847,9.71428571 1.29303375,9.71428571 C1.1197031,9.71428571 1,9.5581565 1,9.28908317 L1,2.42520256 C1,2.15614931 1.11973861,2.0000201 1.29303375,2.00000001 C1.36370847,1.99997993 1.44327969,2.02595125 1.52730803,2.08084654 L6.78248877,5.51277681 Z M6.78248877,17.5127768 C7.07250374,17.7021887 7.07250374,18.012097 6.78248877,18.2015089 L1.52730803,21.6334392 C1.44329744,21.6883144 1.36370847,21.7142857 1.29303375,21.7142857 C1.1197031,21.7142857 1,21.5581565 1,21.2890832 L1,14.4252026 C1,14.1561493 1.11973861,14.0000201 1.29303375,14 C1.36370847,13.9999799 1.44327969,14.0259512 1.52730803,14.0808465 L6.78248877,17.5127768 Z M6.78248877,41.5127768 C7.07250374,41.7021887 7.07250374,42.012097 6.78248877,42.2015089 L1.52730803,45.6334392 C1.44329744,45.6883144 1.36370847,45.7142857 1.29303375,45.7142857 C1.1197031,45.7142857 1,45.5581565 1,45.2890832 L1,38.4252026 C1,38.1561493 1.11973861,38.0000201 1.29303375,38 C1.36370847,37.9999799 1.44327969,38.0259512 1.52730803,38.0808465 L6.78248877,41.5127768 Z"/><rect id="Rectangle-7-Copy-8" width="7" height="7" x="0" y="26.5" fill="#FD8460" rx="3.5"/></g></svg>