<svg width="48" height="48" viewBox="0 0 48 48" xmlns="http://www.w3.org/2000/svg">
  <g fill="none" fill-rule="evenodd">
    <path d="M16 3h23a3 3 0 0 1 0 6H16a3 3 0 0 1 0-6zm0 24h27a3 3 0 0 1 0 6H16a3 3 0 0 1 0-6zm0 12h14a3 3 0 0 1 0 6H16a3 3 0 0 1 0-6zm0-24h20a3 3 0 0 1 0 6H16a3 3 0 0 1 0-6z" fill="#79C9FC"/>
    <path d="M6.8 5.5c.3.2.3.5 0 .7L1.5 9.6l-.2.1c-.2 0-.3-.1-.3-.4V2.4c0-.2.1-.4.3-.4h.2l5.3 3.5zm0 12c.3.2.3.5 0 .7l-5.3 3.4-.2.1c-.2 0-.3-.1-.3-.4v-6.9c0-.2.1-.4.3-.4h.2l5.3 3.5zm0 24c.3.2.3.5 0 .7l-5.3 3.4-.2.1c-.2 0-.3-.1-.3-.4v-6.9c0-.2.1-.4.3-.4h.2l5.3 3.5z" fill="#A0DB77"/>
    <rect fill="#FD8460" y="26.5" width="7" height="7" rx="3.5"/>
  </g>
</svg>
