<svg xmlns="http://www.w3.org/2000/svg" width="48" height="48" viewBox="0 0 48 48">
  <g fill="none" fill-rule="evenodd">
    <path fill="#ABEDEC" d="M13,11 L46,11 C47.1045695,11 48,11.8954305 48,13 L48,46 C48,47.1045695 47.1045695,48 46,48 L13,48 C11.8954305,48 11,47.1045695 11,46 L11,13 C11,11.8954305 11.8954305,11 13,11 Z" opacity=".2"/>
    <path fill="#1EA7FD" fill-opacity=".1" fill-rule="nonzero" d="M13,13 L13,46 L46,46 L46,13 L13,13 Z M13,11 L46,11 C47.1045695,11 48,11.8954305 48,13 L48,46 C48,47.1045695 47.1045695,48 46,48 L13,48 C11.8954305,48 11,47.1045695 11,46 L11,13 C11,11.8954305 11.8954305,11 13,11 Z"/>
    <circle cx="12" cy="12" r="12" fill="#A0DB77"/>
    <path fill="#37D5D3" d="M38.0263158,26.8333333 L38.0263158,39.5 C38.0263158,40.0522847 37.5786005,40.5 37.0263158,40.5 L31.5,40.5 C30.9477153,40.5 30.5,40.0522847 30.5,39.5 L30.5,34.1666667 C30.5,33.6143819 30.0522847,33.1666667 29.5,33.1666667 L23.9736842,33.1666667 C23.4213995,33.1666667 22.9736842,32.7189514 22.9736842,32.1666667 L22.9736842,19.5 C22.9736842,18.9477153 23.4213995,18.5 23.9736842,18.5 L29.5,18.5 C30.0522847,18.5 30.5,18.9477153 30.5,19.5 L30.5,24.8333333 C30.5,25.3856181 30.9477153,25.8333333 31.5,25.8333333 L37.0263158,25.8333333 C37.5786005,25.8333333 38.0263158,26.2810486 38.0263158,26.8333333 Z"/>
    <path fill="#FFF" d="M17.7607221,7.14699451 L10.1005531,15.2380805 L6.23930373,10.9757106 C5.97005611,10.6784925 5.53357994,10.6785686 5.26443571,10.9757106 C4.9951881,11.2728525 4.9951881,11.7546714 5.26443571,12.0518134 L9.59979802,16.8375488 C9.74724314,17.0017949 9.92391535,17.0760233 10.1005531,17.075833 C10.2771908,17.0760233 10.453863,17.0017949 10.5886247,16.8530337 C10.5928985,16.8483159 18.7355901,8.22305925 18.7355901,8.22305925 C19.0048033,7.9259173 19.0048033,7.44421255 18.7355901,7.14699451 C18.466377,6.84989061 18.0299008,6.84989061 17.7607221,7.14699451 Z"/>
  </g>
</svg>
