<svg xmlns="http://www.w3.org/2000/svg" width="48" height="48" viewBox="0 0 48 48">
  <g fill="none" fill-rule="evenodd">
    <rect width="21.302" height="6" x="26.247" y="34.912" fill="#FFD476" rx="3" transform="rotate(-135 36.898 37.912)"/>
    <path fill="#FFC445" d="M20.7818604,2.12744141 C31.153447,2.12744141 39.5612793,10.5352737 39.5612793,20.9068604 C39.5612793,31.278447 31.153447,39.6862793 20.7818604,39.6862793 C10.4102737,39.6862793 2.00244141,31.278447 2.00244141,20.9068604 C2.00244141,10.5352737 10.4102737,2.12744141 20.7818604,2.12744141 Z M20.7818604,8.06494141 C13.6894644,8.06494141 7.93994141,13.8144644 7.93994141,20.9068604 C7.93994141,27.9992563 13.6894644,33.7487793 20.7818604,33.7487793 C27.8742563,33.7487793 33.6237793,27.9992563 33.6237793,20.9068604 C33.6237793,13.8144644 27.8742563,8.06494141 20.7818604,8.06494141 Z"/>
  </g>
</svg>
