<svg xmlns="http://www.w3.org/2000/svg" xmlns:xlink="http://www.w3.org/1999/xlink" width="48" height="48" version="1.1" viewBox="0 0 48 48"><title>illustration/lightning copy 3</title><desc>Created with Sketch.</desc><g id="illustration/lightning-copy-3" fill="none" fill-rule="evenodd" stroke="none" stroke-width="1" opacity=".7"><path id="Rectangle-46-Copy-3" fill="#87E6E5" d="M12.7786543,18.8803119 L26.5207513,22.5124918 C31.3892901,23.7992974 35.1916481,27.6016555 36.4784538,32.4701942 L40.1106336,46.2122912 C40.6751466,48.3480862 39.4013708,50.5371183 37.2655758,51.1016313 C36.6170708,51.2730379 35.9358734,51.2786065 35.2846528,51.1178248 L21.5100973,47.7169853 C16.4618921,46.4706195 12.5203261,42.5290534 11.2739602,37.4808483 L7.87312074,23.7062928 C7.34360012,21.5615543 8.65299288,19.393639 10.7977313,18.8641184 C11.4489519,18.7033367 12.1301493,18.7089053 12.7786543,18.8803119 Z" transform="translate(23.999997, 34.990972) rotate(-45.000000) translate(-23.999997, -34.990972)"/><path id="Rectangle-46-Copy-2" fill="#96D07C" d="M12.7786543,7.88031193 L26.5207513,11.5124918 C31.3892901,12.7992974 35.1916481,16.6016555 36.4784538,21.4701942 L40.1106336,35.2122912 C40.6751466,37.3480862 39.4013708,39.5371183 37.2655758,40.1016313 C36.6170708,40.2730379 35.9358734,40.2786065 35.2846528,40.1178248 L21.5100973,36.7169853 C16.4618921,35.4706195 12.5203261,31.5290534 11.2739602,26.4808483 L7.87312074,12.7062928 C7.34360012,10.5615543 8.65299288,8.39363899 10.7977313,7.86411837 C11.4489519,7.70333665 12.1301493,7.70890527 12.7786543,7.88031193 Z" transform="translate(23.999997, 23.990972) rotate(-45.000000) translate(-23.999997, -23.990972)"/><path id="Rectangle-46-Copy" fill="#1EA7FD" d="M12.7786543,-3.11968807 L26.5207513,0.512491762 C31.3892901,1.79929742 35.1916481,5.60165551 36.4784538,10.4701942 L40.1106336,24.2122912 C40.6751466,26.3480862 39.4013708,28.5371183 37.2655758,29.1016313 C36.6170708,29.2730379 35.9358734,29.2786065 35.2846528,29.1178248 L21.5100973,25.7169853 C16.4618921,24.4706195 12.5203261,20.5290534 11.2739602,15.4808483 L7.87312074,1.70629276 C7.34360012,-0.438445688 8.65299288,-2.60636101 10.7977313,-3.13588163 C11.4489519,-3.29666335 12.1301493,-3.29109473 12.7786543,-3.11968807 Z" transform="translate(23.999997, 12.990972) rotate(-45.000000) translate(-23.999997, -12.990972)"/></g></svg>