<svg xmlns="http://www.w3.org/2000/svg" width="48" height="48" viewBox="0 0 48 48">
  <path fill="#1EA7FD" d="M9.81585422,18.0404299 L13.6337662,7.14847951 L14.406877,7.14847951 L18.1016305,18.0404299 L9.81585422,18.0404299 Z M16.7349165,17.060838 L14.0114769,9.03227286 L11.1972559,17.060838 L16.7349165,17.060838 Z M11.4068943,1.46938776 L1.68532621,27.5028646 L6.53434948,27.5028646 L8.62654532,21.4873493 L19.3024006,21.4873493 L21.3198752,27.5028646 L26.354324,27.5028646 L16.7407733,1.46938776 L11.4068943,1.46938776 Z M9.32299232,22.4669411 L7.23079648,28.4824564 L0.273857461,28.4824564 L10.727035,0.489795918 L17.4232822,0.489795918 L27.7603133,28.4824564 L20.6151935,28.4824564 L18.5977189,22.4669411 L9.32299232,22.4669411 Z M29.1244021,13.9584968 L33.4646634,13.9584968 C33.6284078,12.9948635 34.0178122,12.2639492 34.6441722,11.7882344 C35.3358063,11.2629445 36.2607701,11.0074893 37.406216,11.0074893 C37.9035701,11.0074893 38.370404,11.040781 38.8068001,11.1077383 C39.2795031,11.1802664 39.7018637,11.327751 40.0703082,11.5516153 C40.4563201,11.7861533 40.765168,12.1145474 40.9926083,12.5291207 C41.2238144,12.9505583 41.3331908,13.4895926 41.3326981,14.1236622 C41.3641147,14.8235741 41.1450602,15.3952041 40.6709306,15.7895963 C40.2609973,16.1305884 39.7222509,16.3818351 39.0582084,16.5499465 C38.4351349,16.7076861 37.726268,16.8251504 36.9309376,16.9030919 C36.1685367,16.9778063 35.393563,17.077461 34.6059935,17.202076 C33.8267112,17.3253797 33.0534641,17.4918511 32.2861524,17.7015237 C31.5550115,17.9013124 30.9092987,18.1990632 30.3464443,18.5945576 C29.8001979,18.9783822 29.3526773,19.4938788 29.0019273,20.1469676 C28.657592,20.7881125 28.4811306,21.6239415 28.4811306,22.658147 C28.4811306,23.6000095 28.6358692,24.4009041 28.9407289,25.0640754 C29.245582,25.7272321 29.6654939,26.2715211 30.2030929,26.7025062 C30.7488924,27.1400654 31.3875886,27.4634548 32.1230862,27.6729313 C32.8752464,27.8871534 33.6894606,27.9946992 34.5668073,27.9946992 C35.7134176,27.9946992 36.8354154,27.8254784 37.9344487,27.4867572 C39.0001924,27.1582957 39.9245895,26.5849375 40.7141006,25.7619206 L41.4729218,24.970896 L41.5559476,26.0638901 C41.579389,26.3724849 41.6203599,26.6747647 41.6788349,26.9708397 C41.7143024,27.1504215 41.7562161,27.327754 41.8045795,27.5028646 L46.0726154,27.5028646 C45.9577678,27.1424764 45.8717018,26.7207897 45.8119418,26.2366599 C45.7098031,25.4092104 45.6588098,24.5442638 45.6588098,23.6418161 L45.6588098,13.4646236 C45.6588098,12.3760835 45.4248311,11.5242292 44.9679848,10.8963773 C44.4921533,10.242434 43.8816916,9.73300216 43.1306912,9.36427292 C42.3566321,8.98422216 41.4976044,8.72801919 40.5516835,8.59630913 C39.5775831,8.46067537 38.6163237,8.39290536 37.6677404,8.39290536 C36.6294516,8.39290536 35.5972524,8.49682024 34.5706306,8.70474293 C33.564991,8.90841606 32.6642276,9.24824127 31.8659765,9.72374286 C31.0828907,10.1902108 30.4396028,10.8067415 29.9322219,11.5774439 C29.5096999,12.2192472 29.2391719,13.0114203 29.1244021,13.9584968 Z M38.2229663,28.422897 C37.0305355,28.7904033 35.81129,28.974291 34.5668073,28.974291 C33.6010199,28.974291 32.6966619,28.8548385 31.8547601,28.6150572 C30.9961958,28.3705302 30.2401087,27.9877026 29.5903617,27.4668102 C28.9324143,26.9393436 28.4183195,26.272975 28.0506777,25.4732318 C27.6830425,24.6735032 27.5015387,23.7340774 27.5015387,22.658147 C27.5015387,21.4727801 27.7111334,20.4800117 28.1389218,19.683479 C28.5602956,18.8988904 29.1090488,18.2667844 29.7832561,17.793047 C30.4408554,17.3309793 31.1899259,16.9855682 32.0279397,16.7565759 C32.8297826,16.5374675 33.6381201,16.3634415 34.4528999,16.2345211 C35.2593923,16.1069119 36.0535498,16.0047904 36.8353964,15.9281703 C37.5843135,15.8547773 38.245323,15.7452433 38.817796,15.6003139 C39.3492999,15.4657564 39.7570136,15.2756175 40.0444825,15.0364941 C40.2677549,14.8507708 40.3724894,14.5774626 40.3535989,14.1456253 C40.3535989,13.6414271 40.2761739,13.2598571 40.1337718,13.0002896 C39.9876038,12.7338577 39.7983149,12.5325891 39.5616463,12.388791 C39.3074103,12.234319 39.0074724,12.1295833 38.6582373,12.0759993 C38.2726952,12.0168446 37.8553361,11.9870812 37.406216,11.9870812 C36.4594555,11.9870812 35.7405676,12.1856226 35.2366552,12.5683396 C34.7603442,12.9300935 34.4697521,13.5606711 34.3819598,14.4941547 L34.3402088,14.9380887 L28.0694295,14.9380887 L28.1001664,14.419323 C28.1796944,13.0770843 28.5155911,11.9477949 29.1140198,11.0387923 C29.7025566,10.1448155 30.4540519,9.42457835 31.364657,8.8821498 C32.2600967,8.34875489 33.2647069,7.96975213 34.3761809,7.74464425 C35.4666726,7.52378593 36.5640085,7.41331352 37.6677404,7.41331352 C38.6619201,7.41331352 39.6683015,7.48426469 40.6867786,7.62607747 C41.7334351,7.77181395 42.692607,8.05788471 43.5624242,8.48495115 C44.4553003,8.92333911 45.1898081,9.53628777 45.7600799,10.320022 C46.3493366,11.1298476 46.6384017,12.1822569 46.6384017,13.4646236 L46.6384017,23.6418161 C46.6384017,24.5049373 46.6870358,25.329867 46.7841548,26.1166519 C46.8759039,26.8599327 47.0319533,27.4017298 47.2378999,27.7354143 L47.6989665,28.4824564 L41.0867415,28.4824564 L40.9759258,28.1458023 C40.8700023,27.8240107 40.7839591,27.4955898 40.717807,27.1606433 C40.7137858,27.1402831 40.7098382,27.1198992 40.7059642,27.0994917 C39.9682158,27.6985796 39.1396573,28.1403735 38.2229663,28.422897 Z M40.515711,18.0567653 L41.3331908,17.3209211 L41.3331908,20.4259746 C41.3331908,20.7517672 41.3006188,21.1739644 41.2360998,21.6966483 C41.1658858,22.2654685 40.9774449,22.82381 40.6735109,23.3694203 C40.3567175,23.9381155 39.8735227,24.4202292 39.2323702,24.8154347 C38.5717747,25.2226248 37.6762465,25.4179486 36.5469212,25.4179486 C36.0931649,25.4179486 35.6516205,25.3773003 35.2226536,25.2958511 C34.765519,25.2090537 34.3589265,25.054652 34.0059812,24.8312697 C33.6343154,24.596039 33.3393772,24.2737892 33.1256101,23.8717692 C32.9108341,23.467852 32.8067496,22.9860158 32.8067496,22.4311464 C32.8067496,21.8517396 32.9102254,21.3577521 33.1256101,20.9526901 C33.3334687,20.5617818 33.611059,20.2350944 33.9557449,19.9771026 C34.2864524,19.7295733 34.6705285,19.5351051 35.10589,19.3928887 C35.5118323,19.2602824 35.9243973,19.154178 36.3486759,19.0736482 C36.7814426,18.9963111 37.2142696,18.9318546 37.6471586,18.880282 C38.0586609,18.8312573 38.4513175,18.7700842 38.8251154,18.6968206 C39.190538,18.6251987 39.5308647,18.5360693 39.8461327,18.4296501 C40.1215619,18.3366786 40.3433803,18.2118866 40.515711,18.0567653 Z M40.1594282,19.3577913 C39.8022013,19.4783738 39.4202295,19.5784097 39.0135283,19.6581222 C38.6152026,19.7361932 38.1983866,19.8011302 37.7630436,19.8529951 C37.3490872,19.9023122 36.9350814,19.9639659 36.5262058,20.0370044 C36.1482503,20.1087679 35.7762497,20.2044398 35.4100683,20.3240577 C35.073306,20.4340654 34.7848973,20.5800946 34.5427388,20.7613464 C34.3145587,20.9321355 34.1313724,21.1477218 33.99053,21.4125963 C33.8572136,21.663317 33.7863415,22.0016566 33.7863415,22.4311464 C33.7863415,22.8347286 33.8566049,23.1599975 33.99053,23.4118631 C34.1254639,23.6656258 34.3037558,23.8604277 34.5298632,24.0035332 C34.7746911,24.158487 35.0654902,24.2689166 35.4053866,24.3334537 C35.7734507,24.4033391 36.1538322,24.4383568 36.5469212,24.4383568 C37.5098022,24.4383568 38.233219,24.2805722 38.7183555,23.9815348 C39.222935,23.6705127 39.5865729,23.3076883 39.8177383,22.8927094 C40.0617631,22.4546456 40.2095646,22.0167167 40.2638867,21.5766404 C40.3239038,21.0904278 40.3535989,20.7055199 40.3535989,20.4259746 L40.3535989,19.28585 C40.2905217,19.3114121 40.2257918,19.3353902 40.1594282,19.3577913 Z" transform="translate(0 9.5)"/>
</svg>
