<svg xmlns="http://www.w3.org/2000/svg" width="48" height="48" fill="none"><path fill="#1EA7FD" d="M48 24c0 5.2-1.6 10-4.4 14l-8-5.7a14 14 0 1 0-23-.2l-8.2 5.8A24 24 0 1 1 48 24Z" opacity=".2"/><g fill-rule="evenodd" clip-rule="evenodd" opacity=".7"><path fill="url(#a)" d="M24 0a24 24 0 0 1 17 7l-7.1 7.1a14 14 0 0 0-9.9-3.8V0Z"/><path fill="url(#b)" d="M24 0a24 24 0 0 1 17 7l-7.1 7.1a14 14 0 0 0-9.9-3.8V0Z"/><path fill="url(#c)" fill-opacity=".2" d="M24 0a24 24 0 0 1 17 7l-7.1 7.1a14 14 0 0 0-9.9-3.8V0Z"/></g><path fill="#FA7240" d="M41 7 22 22a3 3 0 0 0 0 4.1 3 3 0 0 0 4.3 0L41 7Z"/><path fill="#FA7240" d="M20 24a4 4 0 1 1 8 0 4 4 0 0 1-8 0Z"/><defs><linearGradient id="a" x1="33.8" x2="25.9" y1="19.2" y2="15.7" gradientUnits="userSpaceOnUse"><stop stop-color="#FC521F" stop-opacity=".5"/><stop offset="1" stop-color="#FC521F" stop-opacity="0"/></linearGradient><linearGradient id="b" x1="32.2" x2="24" y1="8.5" y2="8.6" gradientUnits="userSpaceOnUse"><stop stop-color="#FC521F" stop-opacity=".3"/><stop offset="1" stop-color="#FC521F" stop-opacity="0"/></linearGradient><linearGradient id="c" x1="33.6" x2="24" y1="14" y2="10.9" gradientUnits="userSpaceOnUse"><stop stop-color="#FC521F"/><stop offset="1" stop-color="#FC521F" stop-opacity="0"/></linearGradient></defs></svg>