<svg xmlns="http://www.w3.org/2000/svg" width="48" height="48" viewBox="0 0 48 48">
  <g fill="none" fill-rule="evenodd">
    <path fill="#ABEDEC" d="M13,11 L46,11 C47.1045695,11 48,11.8954305 48,13 L48,46 C48,47.1045695 47.1045695,48 46,48 L13,48 C11.8954305,48 11,47.1045695 11,46 L11,13 C11,11.8954305 11.8954305,11 13,11 Z" opacity=".2"/>
    <path fill="#1EA7FD" fill-opacity=".1" fill-rule="nonzero" d="M13,13 L13,46 L46,46 L46,13 L13,13 Z M13,11 L46,11 C47.1045695,11 48,11.8954305 48,13 L48,46 C48,47.1045695 47.1045695,48 46,48 L13,48 C11.8954305,48 11,47.1045695 11,46 L11,13 C11,11.8954305 11.8954305,11 13,11 Z"/>
    <path fill="#1EA7FD" fill-opacity=".1" fill-rule="nonzero" d="M48,20.36 L48,23.57 L23.335,48 L20.094,48 L48,20.36 Z M48,33.2 L48,36.41 L36.298,48 L33.058,48 L48,33.2 Z M45.9999972,11 C46.481,11 46.923,11.17 47.268,11.454 L11.31,47.07 C11.1069071,46.7501196 10.9993592,46.378906 10.9999972,46 L10.9999972,44.167 L44.485,11 L45.9999972,11 Z M34.762,11 L11,34.536 L11,31.326 L31.521,11 L34.762,11 Z M21.8,11 L11,21.696 L11,18.486 L18.558,11 L21.798,11 L21.8,11 Z"/>
    <circle cx="12.75" cy="12" r="12" fill="#79C9FC" fill-rule="nonzero"/>
    <path fill="#FFF" fill-rule="nonzero" d="M15.387,11.989 C15.387,13.4453749 14.2063749,14.626 12.75,14.626 C11.2936251,14.626 10.113,13.4453749 10.113,11.989 C10.113,10.5326251 11.2936251,9.352 12.75,9.352 C14.2063749,9.352 15.387,10.5326251 15.387,11.989 Z M17.081,13.741 C16.407,14.315 15.725,14.768 15.054,15.088 C14.264,15.464 13.489,15.654 12.75,15.654 C12.01,15.654 11.235,15.464 10.446,15.088 C9.775,14.768 9.093,14.315 8.419,13.741 C7.79801831,13.2093152 7.22635976,12.6225954 6.711,11.988 C7.22649002,11.3535205 7.79813759,10.766812 8.419,10.235 C9.093,9.662 9.775,9.209 10.446,8.889 C11.236,8.513 12.01,8.322 12.75,8.322 C13.49,8.322 14.265,8.512 15.054,8.889 C15.724,9.209 16.407,9.662 17.081,10.235 C17.866,10.903 18.461,11.585 18.789,11.988 C18.273628,12.6225845 17.7019705,13.2093032 17.081,13.741 Z M20.026,11.674 C19.894,11.489 16.755,7.15 12.75,7.15 C8.744,7.15 5.606,11.49 5.474,11.674 L5.25,11.988 L5.474,12.303 C5.606,12.488 8.744,16.826 12.75,16.826 C16.755,16.826 19.894,12.488 20.026,12.303 L20.25,11.988 L20.026,11.674 Z"/>
  </g>
</svg>
