<svg width="149" height="29" viewBox="0 0 149 29" fill="none" xmlns="http://www.w3.org/2000/svg">
<path fill-rule="evenodd" clip-rule="evenodd" d="M116.268 17.7309C116.268 19.0038 115.069 19.8067 113.386 19.8067C111.902 19.8067 111.103 19.2815 111.103 18.2859C111.103 17.2611 111.931 16.8177 113.186 16.8177H116.268V17.7309ZM114.099 9.927C111.602 9.927 110.183 10.7566 109.133 11.9407C109.114 11.9598 109.096 11.9815 109.078 12.0023L109.108 12.0307L111.189 13.1962C111.806 12.6676 112.631 12.2516 113.872 12.2516C115.412 12.2516 116.268 13.0263 116.268 14.8808H112.986C110.276 14.9095 108.278 15.9594 108.278 18.3683C108.278 20.97 110.219 22.0491 112.587 22.0491C114.356 22.0491 115.496 21.3852 116.353 20.1398L116.268 21.7996H119.149V14.9362C119.149 11.5038 116.981 9.927 114.099 9.927ZM146.694 18.2238C146.032 18.9935 145.037 19.4841 143.926 19.4841C141.939 19.4841 140.323 17.9149 140.323 15.9875C140.323 14.0599 141.939 12.4919 143.926 12.4919C145.032 12.4919 146.023 12.9791 146.686 13.7435L148.993 12.4502C147.857 10.9243 146.015 9.92705 143.926 9.92705C140.475 9.92705 137.679 12.6407 137.679 15.9875C137.679 19.3347 140.475 22.0492 143.926 22.0492C146.018 22.0492 147.866 21.0474 149 19.5162L146.694 18.2238ZM45.4837 18.2238C44.8216 18.9935 43.8266 19.4841 42.7156 19.4841C40.7288 19.4841 39.1127 17.9149 39.1127 15.9875C39.1127 14.0599 40.7288 12.4919 42.7156 12.4919C43.8223 12.4919 44.8132 12.9791 45.4761 13.7435L47.7828 12.4502C46.6474 10.9243 44.8048 9.92705 42.7156 9.92705C39.2649 9.92705 36.4688 12.6407 36.4688 15.9875C36.4688 19.3347 39.2649 22.0492 42.7156 22.0492C44.808 22.0492 46.6559 21.0474 47.7903 19.5162L45.4837 18.2238ZM87.6646 10.1763H90.5457L90.4889 12.1688C91.2884 10.7023 92.5148 9.927 94.0556 9.927C95.7953 9.927 96.9379 10.7285 97.5649 12.1407C98.5062 10.7572 99.9324 9.927 101.672 9.927C104.497 9.927 106.179 11.7539 106.179 14.7142V21.7996H103.299V14.9919C103.299 13.3858 102.699 12.5005 101.045 12.5005C99.3629 12.5005 98.3629 13.4972 98.3629 15.4347V21.7996H95.4827V14.9919C95.4827 13.3858 94.9108 12.5005 93.2566 12.5005C91.5439 12.5005 90.5457 13.4972 90.5457 15.4347V21.7996H87.6646V10.1763ZM49.8735 3.45239H52.7544V12.2237C53.5252 10.7853 54.9523 9.92699 56.7506 9.92699C59.4021 9.92699 61.2291 11.7539 61.2291 14.9095V21.7996H58.3465V15.1303C58.3465 13.4694 57.5484 12.5005 55.8638 12.5005C53.9817 12.5005 52.7544 13.6078 52.7544 15.4901V21.7996H49.8735V3.45239ZM79.1302 9.927C75.6809 9.927 72.8833 12.6406 72.8833 15.9875C72.8833 19.3347 75.6809 22.0491 79.1302 22.0491C82.5823 22.0491 85.3779 19.3347 85.3779 15.9875C85.3779 12.6406 82.5823 9.927 79.1302 9.927ZM79.1301 12.4918C81.1189 12.4918 82.7356 14.0599 82.7356 15.9875C82.7356 17.9148 81.1189 19.484 79.1301 19.484C77.1444 19.484 75.5274 17.9148 75.5274 15.9875C75.5274 14.0599 77.1444 12.4918 79.1301 12.4918ZM64.0928 10.1763H66.9757L66.9461 12.3622C67.7468 10.5358 69.1153 9.95435 70.4278 9.95435C71.0417 9.95435 71.5249 10.0545 71.9367 10.2233C72.0991 10.2891 72.4381 10.4472 72.7678 10.6869C72.7678 10.6869 72.3688 11.1688 72.0173 11.7551C71.6644 12.3419 71.4263 12.971 71.4263 12.971C70.9698 12.7501 70.5128 12.583 69.8574 12.583C68.1455 12.583 66.9757 13.5519 66.9757 16.1541V21.7996H64.0928V10.1763ZM132.257 21.8179H135.171V10.1765H132.257V21.8179ZM131.799 5.65878C131.799 4.60551 132.685 3.82935 133.714 3.82935C134.742 3.82935 135.628 4.60551 135.628 5.65878C135.628 6.76718 134.742 7.51549 133.714 7.51549C132.685 7.51549 131.799 6.76718 131.799 5.65878ZM123.21 17.8822V12.5326H121.409V10.1765H123.21V3.45239H126.095V10.1765H129.295V12.5326H126.095V17.9373C126.095 19.268 126.553 19.6562 127.295 19.6562C127.981 19.6562 128.41 19.3512 128.724 19.1017L130.096 20.9863C129.495 21.5408 128.552 22.0953 127.01 22.0953C124.753 22.0953 123.21 20.9863 123.21 17.8822Z" fill="white"/>
<ellipse cx="14.5874" cy="14.5" rx="14.5874" ry="14.5" fill="#FC521F"/>
<path fill-rule="evenodd" clip-rule="evenodd" d="M18.0152 21.1684L15.6973 19.839L22.6708 15.8407C22.938 15.6871 23.1898 15.5115 23.4243 15.3152C24.3307 16.5981 24.4198 18.2878 23.6117 19.6785C22.8817 20.9338 21.5196 21.7137 20.059 21.7137C19.3443 21.7137 18.638 21.5251 18.0152 21.1684ZM17.4572 22.129C17.7248 22.2828 18.0036 22.4118 18.2923 22.5155C17.6268 23.9364 16.1984 24.8571 14.5805 24.8571C12.3222 24.8571 10.4839 23.0317 10.4839 20.7885V12.7913L14.0222 14.8207V19.8392C14.0222 20.0372 14.1288 20.2204 14.3012 20.3194L17.4572 22.129ZM9.11268 21.7132C7.65166 21.7132 6.29194 20.9341 5.56151 19.6793C5.01515 18.7382 4.86903 17.642 5.1528 16.5917C5.43639 15.5414 6.11334 14.6639 7.06153 14.1207L9.3788 12.7917L9.37916 20.7872C9.37916 21.094 9.40563 21.3983 9.45945 21.6992C9.34404 21.7089 9.22809 21.7132 9.11268 21.7132ZM18.1299 11.8305L14.593 13.8589L10.2168 11.3499C10.1307 11.3006 10.0343 11.2756 9.93729 11.2756C9.84146 11.2756 9.74511 11.3006 9.65846 11.3499L6.50295 13.1595C6.23559 13.3122 5.98306 13.4875 5.74852 13.6846C4.84251 12.4019 4.7541 10.7124 5.56128 9.32119C6.29171 8.06599 7.65231 7.28547 9.11386 7.28547C9.8277 7.28547 10.5343 7.47477 11.1576 7.83164L18.1299 11.8305ZM14.5802 4.14282C16.8396 4.14282 18.6767 5.9682 18.6767 8.21233V10.8707L11.7053 6.87301C11.4377 6.71894 11.1587 6.58958 10.8691 6.48546C11.5346 5.0641 12.9633 4.14282 14.5802 4.14282ZM23.6121 9.32244C24.7408 11.2656 24.0685 13.759 22.1119 14.8804L15.1396 18.879V14.8216L19.5153 12.3122C19.6882 12.2132 19.7948 12.03 19.7948 11.8318V8.21256C19.7952 7.90687 19.7673 7.60223 19.7145 7.30232C19.8291 7.29233 19.9445 7.2876 20.0602 7.2876C21.5214 7.2876 22.8824 8.06743 23.6121 9.32244Z" fill="white"/>
</svg>
