<svg width="26" height="26" viewBox="0 0 26 26" fill="none" xmlns="http://www.w3.org/2000/svg">
<path d="M3.56188 23.4257L2.77435 2.44167C2.74834 1.74865 3.27973 1.16132 3.97189 1.11806L21.8203 0.0025325C22.5248 -0.0415009 23.1317 0.493941 23.1757 1.19848C23.1774 1.22502 23.1782 1.25161 23.1782 1.27821V24.1441C23.1782 24.85 22.6059 25.4222 21.9 25.4222C21.8809 25.4222 21.8618 25.4218 21.8427 25.4209L4.7818 24.6547C4.11734 24.6248 3.58683 24.0904 3.56188 23.4257Z" fill="#FF4785"/>
<path fill-rule="evenodd" clip-rule="evenodd" d="M20.4162 0.090332L17.9598 0.243857L17.84 3.12489C17.8382 3.16918 17.8518 3.21273 17.8786 3.24804C17.9422 3.33194 18.0618 3.34836 18.1457 3.28472L19.2649 2.43579L20.2101 3.18041C20.2455 3.20831 20.2897 3.22276 20.3347 3.22118C20.44 3.21751 20.5223 3.12922 20.5186 3.02398L20.4162 0.090332ZM18.5044 9.73835C18.0548 10.0877 14.7052 10.326 14.7052 9.8287C14.776 7.93118 13.9264 7.848 13.4545 7.848C13.0061 7.848 12.251 7.98353 12.251 9.00006C12.251 10.036 13.3545 10.6208 14.6498 11.3072C16.4899 12.2823 18.7168 13.4624 18.7168 16.432C18.7168 19.2783 16.4042 20.8506 13.4545 20.8506C10.4104 20.8506 7.75011 19.619 8.05056 15.3491C8.16855 14.8477 12.0386 14.9668 12.0386 15.3491C11.9914 17.1111 12.3926 17.6293 13.4073 17.6293C14.186 17.6293 14.54 17.2001 14.54 16.4772C14.54 15.3832 13.3902 14.7377 12.0675 13.9951C10.2765 12.9895 8.16855 11.806 8.16855 9.09042C8.16855 6.37967 10.0328 4.57251 13.3601 4.57251C16.6874 4.57251 18.5044 6.35199 18.5044 9.73835Z" fill="white"/>
</svg>
