<?xml version="1.0" encoding="utf-8"?>
<!-- Generator: Adobe Illustrator 16.0.4, SVG Export Plug-In . SVG Version: 6.00 Build 0)  -->
<!DOCTYPE svg PUBLIC "-//W3C//DTD SVG 1.1//EN" "http://www.w3.org/Graphics/SVG/1.1/DTD/svg11.dtd">
<svg version="1.1"
	 id="svg3769" xmlns:dc="http://purl.org/dc/elements/1.1/" xmlns:cc="http://creativecommons.org/ns#" xmlns:rdf="http://www.w3.org/1999/02/22-rdf-syntax-ns#"
	 xmlns="http://www.w3.org/2000/svg" xmlns:xlink="http://www.w3.org/1999/xlink" x="0px" y="0px" width="220px" height="220px"
	 viewBox="1.32 -0.605 220 220" enable-background="new 1.32 -0.605 220 220" xml:space="preserve">
<g id="layer1" transform="translate(-314.39 -274.4)">
	<path id="svg" fill="#1EBBEE" d="M533.03,388.731c0-16.969-4.388-32.91-12.08-46.762c32.791-74.213-35.137-63.343-38.918-62.603
		c-14.392,2.816-27.705,7.337-39.986,13.068c-1.811-0.102-3.633-0.158-5.469-0.158c-45.833,0-84.198,31.968-94.018,74.823
		c24.157-27.101,41.063-38.036,51.188-42.412c-1.616,1.444-3.198,2.904-4.754,4.375c-0.519,0.489-1.018,0.985-1.528,1.477
		c-1.026,0.987-2.05,1.975-3.05,2.972c-0.595,0.593-1.174,1.191-1.76,1.788c-0.888,0.903-1.772,1.805-2.639,2.713
		c-0.614,0.645-1.215,1.292-1.818,1.938c-0.81,0.866-1.613,1.733-2.402,2.603c-0.613,0.676-1.216,1.352-1.818,2.03
		c-0.748,0.842-1.488,1.684-2.22,2.528c-0.605,0.7-1.207,1.4-1.801,2.101c-0.693,0.818-1.377,1.636-2.054,2.454
		c-0.6,0.724-1.196,1.447-1.782,2.17c-0.634,0.782-1.254,1.563-1.873,2.343c-0.601,0.756-1.2,1.511-1.786,2.266
		c-0.558,0.719-1.1,1.435-1.646,2.152c-0.615,0.81-1.236,1.62-1.837,2.426c-0.429,0.577-0.841,1.148-1.262,1.723
		c-3.811,5.2-7.293,10.3-10.438,15.199c-0.009,0.012-0.017,0.024-0.023,0.036c-0.828,1.29-1.627,2.561-2.41,3.821
		c-0.042,0.068-0.086,0.137-0.128,0.206c-0.784,1.266-1.541,2.508-2.279,3.738c-0.025,0.043-0.053,0.087-0.078,0.13
		c-1.984,3.312-3.824,6.503-5.481,9.506c-8.687,15.743-12.916,26.742-13.099,27.396c-27.433,98.072,58.184,56.656,70.131,50.475
		c12.864,6.355,27.346,9.932,42.666,9.932c41.939,0,77.623-26.771,90.904-64.156h-50.68c-7.499,12.67-21.936,21.25-38.521,21.25
		c-24.302,0-44-18.412-44-41.125h137.96c0.522-4.067,0.794-8.213,0.794-12.422H533.03z M515.012,293.814
		c8.306,5.606,14.968,14.41,3.527,44.059c-10.974-17.647-27.482-31.49-47.104-39.099
		C480.361,294.463,502.466,285.345,515.012,293.814z M338.492,475.054c-6.766-6.938-7.961-23.836,6.967-54.628
		c7.534,21.661,22.568,39.811,42,51.33C377.795,477.074,352.139,489.051,338.492,475.054L338.492,475.054z M394.063,374.774
		c0.771-22.075,19.983-39.75,43.588-39.75s42.817,17.675,43.589,39.75H394.063L394.063,374.774z"/>
</g>
</svg>
