<svg xmlns="http://www.w3.org/2000/svg" width="1024" height="1024"><linearGradient id="a" gradientUnits="userSpaceOnUse" x1="-374.742" y1="-.43" x2="-374.742" y2=".57" gradientTransform="matrix(960 0 0 960 360265 445)"><stop offset="0" stop-color="#f8f8f8"/><stop offset="1" stop-color="#ccc"/></linearGradient><circle cx="512" cy="512" r="480" fill="url(#a)"/><radialGradient id="b" cx="-374.765" cy=".03" r=".501" fx="-374.765" fy=".01" gradientTransform="matrix(880 0 0 880 330305 485)" gradientUnits="userSpaceOnUse"><stop offset="0" stop-color="#00f0ff"/><stop offset="1" stop-color="#0070e0"/></radialGradient><circle cx="512" cy="512" r="440" fill="url(#b)"/><path d="M512 929c-2.8 0-5-2.2-5-5v-70c0-2.8 2.2-5 5-5s5 2.2 5 5v70c0 2.8-2.2 5-5 5zm40.4-2c-2.5 0-4.7-1.9-5-4.5l-2.9-29.9c-.3-2.7 1.7-5.2 4.5-5.5 2.8-.3 5.2 1.7 5.5 4.5l2.9 29.9c.3 2.7-1.7 5.2-4.5 5.5h-.5zm-80.8 0h-.5c-2.7-.3-4.8-2.7-4.5-5.5l2.9-29.9c.3-2.7 2.7-4.8 5.5-4.5 2.7.3 4.8 2.7 4.5 5.5l-2.9 29.9c-.3 2.6-2.4 4.5-5 4.5zm120.8-5.9c-2.3 0-4.4-1.6-4.9-4l-13.7-68.7c-.5-2.7 1.2-5.3 3.9-5.9 2.7-.5 5.3 1.2 5.9 3.9l13.7 68.7c.5 2.7-1.2 5.3-3.9 5.9-.4.1-.7.1-1 .1zm-160.8 0c-.3 0-.7 0-1-.1-2.7-.5-4.5-3.2-3.9-5.9l13.7-68.7c.5-2.7 3.2-4.5 5.9-3.9 2.7.5 4.5 3.2 3.9 5.9l-13.7 68.7c-.4 2.3-2.5 4-4.9 4zm200-9.8c-2.1 0-4.1-1.4-4.8-3.5l-8.7-28.7c-.8-2.6.7-5.4 3.3-6.2 2.6-.8 5.4.7 6.2 3.3l8.7 28.7c.8 2.6-.7 5.4-3.3 6.2-.4.1-.9.2-1.4.2zm-239.2 0c-.5 0-1-.1-1.5-.2-2.6-.8-4.1-3.6-3.3-6.2l8.7-28.7c.8-2.6 3.6-4.1 6.2-3.3s4.1 3.6 3.3 6.2l-8.7 28.7c-.6 2.1-2.6 3.5-4.7 3.5zm277.3-13.7c-2 0-3.8-1.2-4.6-3.1l-26.8-64.7c-1.1-2.6.2-5.5 2.7-6.5 2.5-1.1 5.5.2 6.5 2.7l26.8 64.7c1.1 2.6-.2 5.5-2.7 6.5-.6.3-1.3.4-1.9.4zm-315.4 0c-.6 0-1.3-.1-1.9-.4-2.6-1.1-3.8-4-2.7-6.5l26.8-64.7c1.1-2.6 4-3.8 6.5-2.7 2.6 1.1 3.8 4 2.7 6.5L359 894.6c-.8 1.9-2.7 3-4.7 3zm351.9-17.2c-1.8 0-3.5-1-4.4-2.6l-14.1-26.5c-1.3-2.4-.4-5.5 2.1-6.8 2.4-1.3 5.5-.4 6.8 2.1l14.1 26.5c1.3 2.4.4 5.5-2.1 6.8-.8.3-1.6.5-2.4.5zm-388.4 0c-.8 0-1.6-.2-2.4-.6-2.4-1.3-3.4-4.3-2.1-6.8l14.1-26.5c1.3-2.4 4.3-3.4 6.8-2.1 2.4 1.3 3.4 4.3 2.1 6.8l-14.1 26.5c-.9 1.7-2.6 2.7-4.4 2.7zm423.1-20.8c-1.6 0-3.2-.8-4.2-2.2l-38.9-58.2c-1.5-2.3-.9-5.4 1.4-6.9s5.4-.9 6.9 1.4l38.9 58.2c1.5 2.3.9 5.4-1.4 6.9-.8.5-1.7.8-2.7.8zm-457.8 0c-1 0-1.9-.3-2.8-.8-2.3-1.5-2.9-4.6-1.4-6.9l38.9-58.2c1.5-2.3 4.6-2.9 6.9-1.4 2.3 1.5 2.9 4.6 1.4 6.9l-38.9 58.2c-.9 1.4-2.5 2.2-4.1 2.2zm490.3-24.1c-1.4 0-2.9-.6-3.9-1.8l-19-23.2c-1.8-2.1-1.4-5.3.7-7 2.1-1.8 5.3-1.4 7 .7l19 23.2c1.8 2.1 1.4 5.3-.7 7-.9.7-2 1.1-3.1 1.1zm-522.8 0c-1.1 0-2.2-.4-3.2-1.1-2.1-1.8-2.4-4.9-.7-7l19-23.2c1.8-2.1 4.9-2.4 7-.7 2.1 1.8 2.4 4.9.7 7l-19 23.2c-.9 1.2-2.3 1.8-3.8 1.8zm552.7-27.2c-1.3 0-2.6-.5-3.5-1.5l-49.5-49.5c-2-2-2-5.1 0-7.1s5.1-2 7.1 0l49.5 49.5c2 2 2 5.1 0 7.1-1 1-2.3 1.5-3.6 1.5zm-582.6 0c-1.3 0-2.6-.5-3.5-1.5-2-2-2-5.1 0-7.1l49.5-49.5c2-2 5.1-2 7.1 0s2 5.1 0 7.1l-49.5 49.5c-1.1 1-2.3 1.5-3.6 1.5zm-27.2-29.9c-1.4 0-2.9-.6-3.9-1.8-1.8-2.1-1.4-5.3.7-7l23.2-19c2.1-1.8 5.3-1.4 7 .7 1.8 2.1 1.4 5.3-.7 7l-23.2 19c-.8.7-2 1.1-3.1 1.1zm637 0c-1.1 0-2.2-.4-3.2-1.1l-23.2-19c-2.1-1.8-2.4-4.9-.7-7 1.8-2.1 4.9-2.4 7-.7l23.2 19c2.1 1.8 2.4 4.9.7 7-.9 1.1-2.4 1.8-3.8 1.8zm24.1-32.5c-1 0-1.9-.3-2.8-.8l-58.2-38.9c-2.3-1.5-2.9-4.6-1.4-6.9 1.5-2.3 4.6-2.9 6.9-1.4l58.2 38.9c2.3 1.5 2.9 4.6 1.4 6.9-.9 1.4-2.5 2.2-4.1 2.2zm-685.2 0c-1.6 0-3.2-.8-4.2-2.2-1.5-2.3-.9-5.4 1.4-6.9l58.2-38.9c2.3-1.5 5.4-.9 6.9 1.4s.9 5.4-1.4 6.9l-58.2 38.9c-.7.5-1.7.8-2.7.8zm-20.7-34.7c-1.8 0-3.5-1-4.4-2.6-1.3-2.4-.4-5.5 2.1-6.8l26.5-14.1c2.4-1.3 5.5-.4 6.8 2.1 1.3 2.4.4 5.5-2.1 6.8l-26.6 14c-.7.4-1.6.6-2.3.6zm726.6 0c-.8 0-1.6-.2-2.4-.6l-26.5-14.1c-2.4-1.3-3.4-4.3-2.1-6.8s4.3-3.4 6.8-2.1l26.5 14.1c2.4 1.3 3.4 4.3 2.1 6.8-.8 1.8-2.6 2.7-4.4 2.7zm-743.9-36.5c-2 0-3.8-1.2-4.6-3.1-1.1-2.6.2-5.5 2.7-6.5l64.7-26.8c2.6-1.1 5.5.2 6.5 2.7 1.1 2.6-.2 5.5-2.7 6.5l-64.7 26.8c-.7.2-1.3.4-1.9.4zm761.2 0c-.6 0-1.3-.1-1.9-.4L826 647.5c-2.6-1.1-3.8-4-2.7-6.5 1.1-2.6 4-3.8 6.5-2.7l64.7 26.8c2.6 1.1 3.8 4 2.7 6.5-.7 1.9-2.6 3.1-4.6 3.1zm13.7-38.1c-.5 0-1-.1-1.5-.2l-28.7-8.7c-2.6-.8-4.1-3.6-3.3-6.2.8-2.6 3.6-4.1 6.2-3.3l28.7 8.7c2.6.8 4.1 3.6 3.3 6.2-.6 2.1-2.6 3.5-4.7 3.5zm-788.6 0c-2.1 0-4.1-1.4-4.8-3.5-.8-2.6.7-5.4 3.3-6.2l28.7-8.7c2.6-.8 5.4.7 6.2 3.3.8 2.6-.7 5.4-3.3 6.2l-28.7 8.7c-.4.1-.9.2-1.4.2zm798.4-39.2c-.3 0-.7 0-1-.1l-68.7-13.7c-2.7-.5-4.5-3.2-3.9-5.9.5-2.7 3.2-4.5 5.9-3.9l68.7 13.7c2.7.5 4.5 3.2 3.9 5.9-.5 2.3-2.6 4-4.9 4zm-808.2 0c-2.3 0-4.4-1.6-4.9-4-.5-2.7 1.2-5.3 3.9-5.9l68.7-13.7c2.7-.5 5.3 1.2 5.9 3.9.5 2.7-1.2 5.3-3.9 5.9l-68.7 13.7c-.3 0-.7.1-1 .1zm814.1-40h-.5l-29.9-2.9c-2.7-.3-4.8-2.7-4.5-5.5s2.7-4.8 5.5-4.5l29.9 2.9c2.7.3 4.8 2.7 4.5 5.5-.3 2.6-2.4 4.5-5 4.5zm-820 0c-2.5 0-4.7-1.9-5-4.5-.3-2.7 1.7-5.2 4.5-5.5l29.9-2.9c2.8-.3 5.2 1.7 5.5 4.5.3 2.7-1.7 5.2-4.5 5.5l-29.9 2.9h-.5zM924 517h-70c-2.8 0-5-2.2-5-5s2.2-5 5-5h70c2.8 0 5 2.2 5 5s-2.2 5-5 5zm-754 0h-70c-2.8 0-5-2.2-5-5s2.2-5 5-5h70c2.8 0 5 2.2 5 5s-2.2 5-5 5zm722.2-37.4c-2.5 0-4.7-1.9-5-4.5-.3-2.7 1.7-5.2 4.5-5.5l29.9-2.9c2.7-.3 5.2 1.7 5.5 4.5.3 2.7-1.7 5.2-4.5 5.5l-29.9 2.9c-.2-.1-.4 0-.5 0zm-760.4 0h-.5l-29.9-2.9c-2.7-.3-4.8-2.7-4.5-5.5.3-2.7 2.7-4.7 5.5-4.5l29.9 2.9c2.7.3 4.8 2.7 4.5 5.5-.2 2.5-2.4 4.5-5 4.5zm715.6-29.3c-2.3 0-4.4-1.6-4.9-4-.5-2.7 1.2-5.3 3.9-5.9l68.7-13.7c2.7-.5 5.3 1.2 5.9 3.9.5 2.7-1.2 5.3-3.9 5.9l-68.7 13.7c-.3 0-.7.1-1 .1zm-670.8 0c-.3 0-.7 0-1-.1l-68.7-13.7c-2.7-.5-4.5-3.2-3.9-5.9.5-2.7 3.2-4.5 5.9-3.9l68.7 13.7c2.7.5 4.5 3.2 3.9 5.9-.5 2.3-2.6 4-4.9 4zm700.9-44.2c-2.1 0-4.1-1.4-4.8-3.5-.8-2.6.7-5.4 3.3-6.2l28.7-8.7c2.6-.8 5.4.7 6.2 3.3.8 2.6-.7 5.4-3.3 6.2l-28.7 8.7c-.4.1-.9.2-1.4.2zm-731 0c-.5 0-1-.1-1.5-.2l-28.7-8.7c-2.6-.8-4.1-3.6-3.3-6.2.8-2.6 3.6-4.1 6.2-3.3l28.7 8.7c2.6.8 4.1 3.6 3.3 6.2-.6 2.1-2.6 3.5-4.7 3.5zm681.5-20c-2 0-3.8-1.2-4.6-3.1-1.1-2.6.2-5.5 2.7-6.5l64.7-26.8c2.5-1.1 5.5.2 6.5 2.7 1.1 2.6-.2 5.5-2.7 6.5l-64.7 26.8c-.6.3-1.3.4-1.9.4zm-632 0c-.6 0-1.3-.1-1.9-.4L129.4 359c-2.6-1.1-3.8-4-2.7-6.5 1.1-2.6 4-3.8 6.5-2.7l64.7 26.8c2.6 1.1 3.8 4 2.7 6.5-.7 1.9-2.6 3-4.6 3zm652.9-49.2c-1.8 0-3.5-1-4.4-2.6-1.3-2.4-.4-5.5 2.1-6.8l26.5-14.1c2.4-1.3 5.5-.4 6.8 2.1 1.3 2.4.4 5.5-2.1 6.8l-26.5 14.1c-.8.3-1.6.5-2.4.5zm-673.8 0c-.8 0-1.6-.2-2.4-.6l-26.5-14.1c-2.4-1.3-3.4-4.3-2.1-6.8 1.3-2.4 4.3-3.4 6.8-2.1l26.5 14.1c2.4 1.3 3.4 4.3 2.1 6.8-.9 1.8-2.6 2.7-4.4 2.7zm621.3-9.9c-1.6 0-3.2-.8-4.2-2.2-1.5-2.3-.9-5.4 1.4-6.9l58.2-38.9c2.3-1.5 5.4-.9 6.9 1.4s.9 5.4-1.4 6.9l-58.2 38.9c-.8.5-1.8.8-2.7.8zm-568.8 0c-1 0-1.9-.3-2.8-.8l-58.2-38.9c-2.3-1.5-2.9-4.6-1.4-6.9 1.5-2.3 4.6-2.9 6.9-1.4l58.2 38.9c2.3 1.5 2.9 4.6 1.4 6.9-.9 1.4-2.5 2.2-4.1 2.2zm526.2-51.8c-1.3 0-2.6-.5-3.5-1.5-2-2-2-5.1 0-7.1l49.5-49.5c2-2 5.1-2 7.1 0s2 5.1 0 7.1l-49.5 49.5c-1 1-2.3 1.5-3.6 1.5zm-483.6 0c-1.3 0-2.6-.5-3.5-1.5l-49.5-49.5c-2-2-2-5.1 0-7.1s5.1-2 7.1 0l49.5 49.5c2 2 2 5.1 0 7.1-1.1 1-2.4 1.5-3.6 1.5zm-53.5-.5c-1.1 0-2.2-.4-3.2-1.1l-23.2-19c-2.1-1.8-2.4-4.9-.7-7 1.8-2.1 4.9-2.4 7-.7l23.2 19c2.1 1.8 2.4 4.9.7 7-.9 1.1-2.3 1.8-3.8 1.8zm590.6 0c-1.4 0-2.9-.6-3.9-1.8-1.8-2.1-1.4-5.3.7-7l23.2-19c2.1-1.8 5.3-1.4 7 .7 1.8 2.1 1.4 5.3-.7 7l-23.2 19c-.9.7-2 1.1-3.1 1.1zM702 232.6c-1 0-1.9-.3-2.8-.8-2.3-1.5-2.9-4.6-1.4-6.9l38.9-58.2c1.5-2.3 4.6-2.9 6.9-1.4 2.3 1.5 2.9 4.6 1.4 6.9l-38.9 58.2c-.9 1.5-2.5 2.2-4.1 2.2zm-380 0c-1.6 0-3.2-.8-4.2-2.2l-38.9-58.2c-1.5-2.3-.9-5.4 1.4-6.9s5.4-.9 6.9 1.4l38.9 58.2c1.5 2.3.9 5.4-1.4 6.9-.8.6-1.7.8-2.7.8zm432.3-10.9c-1.1 0-2.2-.4-3.2-1.1-2.1-1.8-2.4-4.9-.7-7l19-23.2c1.8-2.1 4.9-2.4 7-.7 2.1 1.8 2.4 4.9.7 7l-19 23.2c-.9 1.2-2.3 1.8-3.8 1.8zm-484.6 0c-1.4 0-2.9-.6-3.9-1.8l-19-23.2c-1.8-2.1-1.4-5.3.7-7 2.1-1.8 5.3-1.4 7 .7l19 23.2c1.8 2.1 1.4 5.3-.7 7-.9.7-2 1.1-3.1 1.1zM642.9 201c-.6 0-1.3-.1-1.9-.4-2.6-1.1-3.8-4-2.7-6.5l26.8-64.7c1.1-2.6 4-3.8 6.5-2.7 2.6 1.1 3.8 4 2.7 6.5l-26.8 64.7c-.8 2-2.7 3.1-4.6 3.1zm-261.8 0c-2 0-3.8-1.2-4.6-3.1l-26.8-64.7c-1.1-2.6.2-5.5 2.7-6.5 2.6-1.1 5.5.2 6.5 2.7l26.8 64.7c1.1 2.6-.2 5.5-2.7 6.5-.6.3-1.2.4-1.9.4zm197.6-19.4c-.3 0-.7 0-1-.1-2.7-.5-4.5-3.2-3.9-5.9l13.7-68.7c.5-2.7 3.2-4.5 5.9-3.9 2.7.5 4.5 3.2 3.9 5.9l-13.7 68.7c-.4 2.3-2.5 4-4.9 4zm-133.4 0c-2.3 0-4.4-1.6-4.9-4l-13.7-68.7c-.5-2.7 1.2-5.3 3.9-5.9 2.7-.5 5.3 1.2 5.9 3.9l13.7 68.7c.5 2.7-1.2 5.3-3.9 5.9-.4 0-.7.1-1 .1zm246.8-1.5c-.8 0-1.6-.2-2.4-.6-2.4-1.3-3.4-4.3-2.1-6.8l14.1-26.5c1.3-2.4 4.3-3.4 6.8-2.1 2.4 1.3 3.4 4.3 2.1 6.8l-14.1 26.5c-.9 1.7-2.6 2.7-4.4 2.7zm-360.2 0c-1.8 0-3.5-1-4.4-2.6L313.4 151c-1.3-2.4-.4-5.5 2.1-6.8 2.4-1.3 5.5-.4 6.8 2.1l14.1 26.5c1.3 2.4.4 5.5-2.1 6.8-.8.3-1.6.5-2.4.5zM512 175c-2.8 0-5-2.2-5-5v-70c0-2.8 2.2-5 5-5s5 2.2 5 5v70c0 2.8-2.2 5-5 5zm110.9-23.5c-.5 0-1-.1-1.5-.2-2.6-.8-4.1-3.6-3.3-6.2l8.7-28.7c.8-2.6 3.6-4.1 6.2-3.3 2.6.8 4.1 3.6 3.3 6.2l-8.7 28.7c-.6 2.1-2.6 3.5-4.7 3.5zm-221.8 0c-2.1 0-4.1-1.4-4.8-3.5l-8.7-28.7c-.8-2.6.7-5.4 3.3-6.2 2.6-.8 5.4.7 6.2 3.3l8.7 28.7c.8 2.6-.7 5.4-3.3 6.2-.4.1-.9.2-1.4.2zm148.3-14.7h-.5c-2.7-.3-4.8-2.7-4.5-5.5l2.9-29.9c.3-2.7 2.7-4.8 5.5-4.5 2.7.3 4.8 2.7 4.5 5.5l-2.9 29.9c-.2 2.6-2.4 4.5-5 4.5zm-74.8 0c-2.5 0-4.7-1.9-5-4.5l-2.9-29.9c-.3-2.7 1.7-5.2 4.5-5.5 2.8-.3 5.2 1.7 5.5 4.5l2.9 29.9c.3 2.7-1.7 5.2-4.5 5.5h-.5z" fill="#ddd"/><path d="M210.1 813.9l258.1-345.8L512 512 210.1 813.9z" fill="#ddd"/><path d="M468.2 468.2L814 210.1 512 512l-43.8-43.8z" fill="#e44"/><path d="M813.9 210.1L555.8 555.8 512 512l301.9-301.9z" fill="#c00"/><path d="M210.1 813.9l345.8-258.1L512 512 210.1 813.9z" fill="#aaa"/></svg>